<svg xmlns="http://www.w3.org/2000/svg" viewBox="0 0 898 1014" width="898" height="1014" font-family="system-ui, -apple-system, Segoe UI, Roboto, sans-serif">
<rect width="898" height="1014" fill="#fcfcfb"/>
<text x="16" y="28" font-size="17" font-weight="600" fill="#0b0b0b">Stack distance: mediana da amostra × da carga completa · fase a02</text>
<text x="16" y="48" font-size="12" fill="#52514e">uma faceta por técnica · um ponto por carga · x: mediana da carga completa · y: mediana da amostra (escala log de d + 1) · só os reúsos</text>
<text x="16" y="64" font-size="12" fill="#52514e">na diagonal ("igual"): a amostra acerta; na linha "×10": a amostra tem distâncias 10 vezes mais longas; na linha "÷10": 10 vezes mais curtas</text>
<text x="16" y="96" font-size="12" fill="#0b0b0b">carga:</text>
<circle cx="64" cy="92" r="5" fill="#63BDB5" stroke="#fcfcfb" stroke-width="2"/>
<text x="73" y="96" font-size="11" fill="#52514e">β 3,0</text>
<circle cx="130" cy="92" r="5" fill="#5AB3AC" stroke="#fcfcfb" stroke-width="2"/>
<text x="139" y="96" font-size="11" fill="#52514e">β 2,5</text>
<circle cx="196" cy="92" r="5" fill="#51A9A3" stroke="#fcfcfb" stroke-width="2"/>
<text x="205" y="96" font-size="11" fill="#52514e">β 2,0</text>
<circle cx="262" cy="92" r="5" fill="#489F9A" stroke="#fcfcfb" stroke-width="2"/>
<text x="271" y="96" font-size="11" fill="#52514e">β 1,75</text>
<circle cx="328" cy="92" r="5" fill="#3F9591" stroke="#fcfcfb" stroke-width="2"/>
<text x="337" y="96" font-size="11" fill="#52514e">β 1,5</text>
<circle cx="394" cy="92" r="5" fill="#368B88" stroke="#fcfcfb" stroke-width="2"/>
<text x="403" y="96" font-size="11" fill="#52514e">β 1,25</text>
<circle cx="460" cy="92" r="5" fill="#2C8180" stroke="#fcfcfb" stroke-width="2"/>
<text x="469" y="96" font-size="11" fill="#52514e">β 1,0</text>
<circle cx="526" cy="92" r="5" fill="#237777" stroke="#fcfcfb" stroke-width="2"/>
<text x="535" y="96" font-size="11" fill="#52514e">β 0,75</text>
<circle cx="592" cy="92" r="5" fill="#1A6D6E" stroke="#fcfcfb" stroke-width="2"/>
<text x="601" y="96" font-size="11" fill="#52514e">β 0,5</text>
<circle cx="658" cy="92" r="5" fill="#116365" stroke="#fcfcfb" stroke-width="2"/>
<text x="667" y="96" font-size="11" fill="#52514e">β 0,25</text>
<circle cx="724" cy="92" r="5" fill="#08595C" stroke="#fcfcfb" stroke-width="2"/>
<text x="733" y="96" font-size="11" fill="#52514e">β 0,0</text>
<text x="204.0" y="140" font-size="12.5" font-weight="600" text-anchor="middle" fill="#0b0b0b">sistemática 1%</text>
<line x1="86" y1="386.0" x2="322" y2="386.0" stroke="#e7e6e2"/>
<line x1="86.0" y1="150" x2="86.0" y2="386" stroke="#e7e6e2"/>
<text x="80" y="389.5" font-size="10" text-anchor="end" fill="#7a7974">0</text>
<line x1="86" y1="366.8" x2="322" y2="366.8" stroke="#e7e6e2"/>
<line x1="105.2" y1="150" x2="105.2" y2="386" stroke="#e7e6e2"/>
<text x="80" y="370.3" font-size="10" text-anchor="end" fill="#7a7974">1</text>
<line x1="86" y1="319.5" x2="322" y2="319.5" stroke="#e7e6e2"/>
<line x1="152.5" y1="150" x2="152.5" y2="386" stroke="#e7e6e2"/>
<text x="80" y="323.0" font-size="10" text-anchor="end" fill="#7a7974">10</text>
<line x1="86" y1="258.0" x2="322" y2="258.0" stroke="#e7e6e2"/>
<line x1="214.0" y1="150" x2="214.0" y2="386" stroke="#e7e6e2"/>
<text x="80" y="261.5" font-size="10" text-anchor="end" fill="#7a7974">100</text>
<line x1="86" y1="194.4" x2="322" y2="194.4" stroke="#e7e6e2"/>
<line x1="277.6" y1="150" x2="277.6" y2="386" stroke="#e7e6e2"/>
<text x="80" y="197.9" font-size="10" text-anchor="end" fill="#7a7974">1k</text>
<path d="M86.0,322.2 L157.1,251.0 L175.3,232.9 L186.1,222.0 L193.9,214.2 L200.0,208.2 L205.0,203.2 L209.2,199.0 L212.8,195.3 L216.1,192.1 L219.0,189.2 L221.6,186.6 L224.0,184.2 L226.2,182.0 L228.2,179.9 L230.1,178.0 L231.9,176.2 L233.6,174.6 L235.2,173.0 L236.7,171.5 L238.1,170.1 L239.4,168.7 L240.7,167.4 L241.9,166.2 L243.1,165.0 L244.2,163.9 L245.3,162.8 L246.4,161.8 L247.4,160.8 L248.3,159.8 L249.3,158.9 L250.2,158.0 L251.1,157.1 L251.9,156.2 L252.7,155.4 L253.5,154.6 L254.3,153.8 L255.1,153.1 L255.8,152.3 L256.5,151.6 L257.2,150.9 L257.9,150.2" fill="none" stroke="#9a9994" stroke-width="1" stroke-dasharray="2 3"/>
<text x="229.9" y="162.2" font-size="10.5" font-weight="600" text-anchor="middle" fill="#52514e" stroke="#fcfcfb" stroke-width="3.5" paint-order="stroke">×10</text>
<path d="M157.1,378.7 L175.3,360.6 L186.1,349.7 L193.9,341.9 L200.0,335.9 L205.0,330.9 L209.2,326.7 L212.8,323.0 L216.1,319.8 L219.0,316.9 L221.6,314.2 L224.0,311.9 L226.2,309.6 L228.2,307.6 L230.1,305.7 L231.9,303.9 L233.6,302.3 L235.2,300.7 L236.7,299.2 L238.1,297.8 L239.4,296.4 L240.7,295.1 L241.9,293.9 L243.1,292.7 L244.2,291.6 L245.3,290.5 L246.4,289.5 L247.4,288.5 L248.3,287.5 L249.3,286.6 L250.2,285.7 L251.1,284.8 L251.9,283.9 L252.7,283.1 L253.5,282.3 L254.3,281.5 L255.1,280.8 L255.8,280.0 L256.5,279.3 L257.2,278.6 L257.9,277.9 L258.6,277.3 L259.2,276.6 L259.9,276.0 L260.5,275.3 L261.1,274.7 L261.7,274.1 L262.3,273.6 L262.9,273.0 L263.4,272.4 L264.0,271.9 L264.5,271.3 L265.0,270.8 L265.5,270.3 L266.1,269.8 L266.6,269.3 L267.0,268.8 L267.5,268.3 L268.0,267.8 L268.5,267.4 L268.9,266.9 L269.4,266.5 L269.8,266.0 L270.3,265.6 L270.7,265.2 L271.1,264.7 L271.5,264.3 L271.9,263.9 L272.3,263.5 L272.7,263.1 L273.1,262.7 L273.5,262.3 L273.9,261.9 L274.3,261.6 L274.6,261.2 L275.0,260.8 L275.4,260.5 L275.7,260.1 L276.1,259.8 L276.4,259.4 L276.8,259.1 L277.1,258.7 L277.5,258.4 L277.8,258.1 L278.1,257.7 L278.4,257.4 L278.8,257.1 L279.1,256.8 L279.4,256.5 L279.7,256.2 L280.0,255.8 L280.3,255.5 L280.6,255.2 L280.9,254.9 L281.2,254.7 L281.5,254.4 L281.8,254.1 L282.1,253.8 L282.3,253.5 L282.6,253.2 L282.9,253.0 L283.2,252.7 L283.4,252.4 L283.7,252.1 L284.0,251.9 L284.2,251.6 L284.5,251.4 L284.7,251.1 L285.0,250.8 L285.3,250.6 L285.5,250.3 L285.8,250.1 L286.0,249.8 L286.2,249.6 L286.5,249.4 L286.7,249.1 L287.0,248.9 L287.2,248.6 L287.4,248.4 L287.7,248.2 L287.9,247.9 L288.1,247.7 L288.3,247.5 L288.6,247.3 L288.8,247.0 L289.0,246.8 L289.2,246.6 L289.5,246.4 L289.7,246.2 L289.9,246.0 L290.1,245.7 L290.3,245.5 L290.5,245.3 L290.7,245.1 L290.9,244.9 L291.1,244.7 L291.3,244.5 L291.5,244.3 L291.7,244.1 L291.9,243.9 L292.1,243.7 L292.3,243.5 L292.5,243.3 L292.7,243.1 L292.9,242.9 L293.1,242.7 L293.3,242.6 L293.5,242.4 L293.7,242.2 L293.8,242.0 L294.0,241.8 L294.2,241.6 L294.4,241.4 L294.6,241.3 L294.8,241.1 L294.9,240.9 L295.1,240.7 L295.3,240.6 L295.5,240.4 L295.6,240.2 L295.8,240.0 L296.0,239.9 L296.2,239.7 L296.3,239.5 L296.5,239.4 L296.7,239.2 L296.8,239.0 L297.0,238.9 L297.2,238.7 L297.3,238.5 L297.5,238.4 L297.6,238.2 L297.8,238.0 L298.0,237.9 L298.1,237.7 L298.3,237.6 L298.4,237.4 L298.6,237.3 L298.7,237.1 L298.9,236.9 L299.1,236.8 L299.2,236.6 L299.4,236.5 L299.5,236.3 L299.7,236.2 L299.8,236.0 L300.0,235.9 L300.1,235.7 L300.3,235.6 L300.4,235.4 L300.5,235.3 L300.7,235.2 L300.8,235.0 L301.0,234.9 L301.1,234.7 L301.3,234.6 L301.4,234.4 L301.5,234.3 L301.7,234.2 L301.8,234.0 L302.0,233.9 L302.1,233.7 L302.2,233.6 L302.4,233.5 L302.5,233.3 L302.6,233.2 L302.8,233.1 L302.9,232.9 L303.0,232.8 L303.2,232.7 L303.3,232.5 L303.4,232.4 L303.6,232.3 L303.7,232.1 L303.8,232.0 L304.0,231.9 L304.1,231.8 L304.2,231.6 L304.3,231.5 L304.5,231.4 L304.6,231.3 L304.7,231.1 L304.8,231.0 L305.0,230.9 L305.1,230.8 L305.2,230.6 L305.3,230.5 L305.5,230.4 L305.6,230.3 L305.7,230.1 L305.8,230.0 L305.9,229.9 L306.1,229.8 L306.2,229.7 L306.3,229.6 L306.4,229.4 L306.5,229.3 L306.6,229.2 L306.8,229.1 L306.9,229.0 L307.0,228.9 L307.1,228.7 L307.2,228.6 L307.3,228.5 L307.4,228.4 L307.6,228.3 L307.7,228.2 L307.8,228.1 L307.9,227.9 L308.0,227.8 L308.1,227.7 L308.2,227.6 L308.3,227.5 L308.4,227.4 L308.6,227.3 L308.7,227.2 L308.8,227.1 L308.9,227.0 L309.0,226.9 L309.1,226.8 L309.2,226.6 L309.3,226.5 L309.4,226.4 L309.5,226.3 L309.6,226.2 L309.7,226.1 L309.8,226.0 L309.9,225.9 L310.0,225.8 L310.1,225.7 L310.2,225.6 L310.3,225.5 L310.4,225.4 L310.5,225.3 L310.6,225.2 L310.7,225.1 L310.8,225.0 L310.9,224.9 L311.0,224.8 L311.1,224.7 L311.2,224.6 L311.3,224.5 L311.4,224.4 L311.5,224.3 L311.6,224.2 L311.7,224.1 L311.8,224.0 L311.9,223.9 L312.0,223.8 L312.1,223.7 L312.2,223.6 L312.3,223.5 L312.4,223.4 L312.5,223.3 L312.6,223.3 L312.7,223.2 L312.8,223.1 L312.9,223.0 L313.0,222.9 L313.1,222.8 L313.2,222.7 L313.2,222.6 L313.3,222.5 L313.4,222.4 L313.5,222.3 L313.6,222.2 L313.7,222.1 L313.8,222.1 L313.9,222.0 L314.0,221.9 L314.1,221.8 L314.1,221.7 L314.2,221.6 L314.3,221.5 L314.4,221.4 L314.5,221.3 L314.6,221.3 L314.7,221.2 L314.8,221.1 L314.8,221.0 L314.9,220.9 L315.0,220.8 L315.1,220.7 L315.2,220.7 L315.3,220.6 L315.4,220.5 L315.4,220.4 L315.5,220.3 L315.6,220.2 L315.7,220.1 L315.8,220.1 L315.9,220.0 L316.0,219.9 L316.0,219.8 L316.1,219.7 L316.2,219.6 L316.3,219.6 L316.4,219.5 L316.4,219.4 L316.5,219.3 L316.6,219.2 L316.7,219.2 L316.8,219.1 L316.9,219.0 L316.9,218.9 L317.0,218.8 L317.1,218.8 L317.2,218.7 L317.3,218.6 L317.3,218.5 L317.4,218.4 L317.5,218.4 L317.6,218.3 L317.6,218.2 L317.7,218.1 L317.8,218.0 L317.9,218.0 L318.0,217.9 L318.0,217.8 L318.1,217.7 L318.2,217.7 L318.3,217.6 L318.3,217.5 L318.4,217.4 L318.5,217.3 L318.6,217.3 L318.6,217.2 L318.7,217.1 L318.8,217.0 L318.9,217.0 L318.9,216.9 L319.0,216.8 L319.1,216.7 L319.2,216.7 L319.2,216.6 L319.3,216.5 L319.4,216.5 L319.5,216.4 L319.5,216.3 L319.6,216.2 L319.7,216.2 L319.8,216.1 L319.8,216.0 L319.9,215.9 L320.0,215.9 L320.0,215.8 L320.1,215.7 L320.2,215.7 L320.3,215.6 L320.3,215.5 L320.4,215.4 L320.5,215.4 L320.5,215.3 L320.6,215.2 L320.7,215.2 L320.8,215.1 L320.8,215.0 L320.9,214.9 L321.0,214.9 L321.0,214.8 L321.1,214.7 L321.2,214.7 L321.2,214.6 L321.3,214.5 L321.4,214.5 L321.4,214.4 L321.5,214.3 L321.6,214.3 L321.7,214.2 L321.7,214.1 L321.8,214.1 L321.9,214.0 L321.9,213.9 L322.0,213.9" fill="none" stroke="#9a9994" stroke-width="1" stroke-dasharray="2 3"/>
<text x="317.9" y="243.9" font-size="10.5" font-weight="600" text-anchor="middle" fill="#52514e" stroke="#fcfcfb" stroke-width="3.5" paint-order="stroke">÷10</text>
<line x1="86" y1="386" x2="322" y2="150" stroke="#9a9994" stroke-width="1.5" stroke-dasharray="4 3"/>
<text x="156.8" y="311.2" font-size="10.5" font-weight="600" text-anchor="middle" fill="#52514e" stroke="#fcfcfb" stroke-width="3.5" paint-order="stroke" transform="rotate(-45 156.8 311.2)">igual</text>
<rect x="86" y="150" width="236" height="236" fill="none" stroke="#c9c8c2"/>
<path d="M86.0,386.0 L86.0,366.8 L86.0,347.6 L86.0,332.0 L105.2,289.9 L140.0,240.7 L205.0,211.5 L273.0,203.8 L303.0,203.8 L315.5,200.3 L322.0,197.6" fill="none" stroke="#c9c8c2" stroke-width="1"/>
<circle cx="86.0" cy="386.0" r="5" fill="#63BDB5" stroke="#fcfcfb" stroke-width="2"><title>β 3,0 · sistemática 1%: completa 0 · amostra 0</title></circle>
<circle cx="86.0" cy="366.8" r="5" fill="#5AB3AC" stroke="#fcfcfb" stroke-width="2"><title>β 2,5 · sistemática 1%: completa 0 · amostra 1</title></circle>
<circle cx="86.0" cy="347.6" r="5" fill="#51A9A3" stroke="#fcfcfb" stroke-width="2"><title>β 2,0 · sistemática 1%: completa 0 · amostra 3</title></circle>
<circle cx="86.0" cy="332.0" r="5" fill="#489F9A" stroke="#fcfcfb" stroke-width="2"><title>β 1,75 · sistemática 1%: completa 0 · amostra 6</title></circle>
<circle cx="105.2" cy="289.9" r="5" fill="#3F9591" stroke="#fcfcfb" stroke-width="2"><title>β 1,5 · sistemática 1%: completa 1 · amostra 31</title></circle>
<circle cx="140.0" cy="240.7" r="5" fill="#368B88" stroke="#fcfcfb" stroke-width="2"><title>β 1,25 · sistemática 1%: completa 6 · amostra 188</title></circle>
<circle cx="205.0" cy="211.5" r="5" fill="#2C8180" stroke="#fcfcfb" stroke-width="2"><title>β 1,0 · sistemática 1%: completa 72 · amostra 539</title></circle>
<circle cx="273.0" cy="203.8" r="5" fill="#237777" stroke="#fcfcfb" stroke-width="2"><title>β 0,75 · sistemática 1%: completa 848 · amostra 712</title></circle>
<circle cx="303.0" cy="203.8" r="5" fill="#1A6D6E" stroke="#fcfcfb" stroke-width="2"><title>β 0,5 · sistemática 1%: completa 2.501k · amostra 714</title></circle>
<circle cx="315.5" cy="200.3" r="5" fill="#116365" stroke="#fcfcfb" stroke-width="2"><title>β 0,25 · sistemática 1%: completa 3.937k · amostra 808</title></circle>
<circle cx="322.0" cy="197.6" r="5" fill="#08595C" stroke="#fcfcfb" stroke-width="2"><title>β 0,0 · sistemática 1%: completa 4.97k · amostra 892</title></circle>
<text x="480.0" y="140" font-size="12.5" font-weight="600" text-anchor="middle" fill="#0b0b0b">sistemática 10%</text>
<line x1="362" y1="386.0" x2="598" y2="386.0" stroke="#e7e6e2"/>
<line x1="362.0" y1="150" x2="362.0" y2="386" stroke="#e7e6e2"/>
<line x1="362" y1="366.8" x2="598" y2="366.8" stroke="#e7e6e2"/>
<line x1="381.2" y1="150" x2="381.2" y2="386" stroke="#e7e6e2"/>
<line x1="362" y1="319.5" x2="598" y2="319.5" stroke="#e7e6e2"/>
<line x1="428.5" y1="150" x2="428.5" y2="386" stroke="#e7e6e2"/>
<line x1="362" y1="258.0" x2="598" y2="258.0" stroke="#e7e6e2"/>
<line x1="490.0" y1="150" x2="490.0" y2="386" stroke="#e7e6e2"/>
<line x1="362" y1="194.4" x2="598" y2="194.4" stroke="#e7e6e2"/>
<line x1="553.6" y1="150" x2="553.6" y2="386" stroke="#e7e6e2"/>
<path d="M362.0,322.2 L433.1,251.0 L451.3,232.9 L462.1,222.0 L469.9,214.2 L476.0,208.2 L481.0,203.2 L485.2,199.0 L488.8,195.3 L492.1,192.1 L495.0,189.2 L497.6,186.6 L500.0,184.2 L502.2,182.0 L504.2,179.9 L506.1,178.0 L507.9,176.2 L509.6,174.6 L511.2,173.0 L512.7,171.5 L514.1,170.1 L515.4,168.7 L516.7,167.4 L517.9,166.2 L519.1,165.0 L520.2,163.9 L521.3,162.8 L522.4,161.8 L523.4,160.8 L524.3,159.8 L525.3,158.9 L526.2,158.0 L527.1,157.1 L527.9,156.2 L528.7,155.4 L529.5,154.6 L530.3,153.8 L531.1,153.1 L531.8,152.3 L532.5,151.6 L533.2,150.9 L533.9,150.2" fill="none" stroke="#9a9994" stroke-width="1" stroke-dasharray="2 3"/>
<text x="505.9" y="162.2" font-size="10.5" font-weight="600" text-anchor="middle" fill="#52514e" stroke="#fcfcfb" stroke-width="3.5" paint-order="stroke">×10</text>
<path d="M433.1,378.7 L451.3,360.6 L462.1,349.7 L469.9,341.9 L476.0,335.9 L481.0,330.9 L485.2,326.7 L488.8,323.0 L492.1,319.8 L495.0,316.9 L497.6,314.2 L500.0,311.9 L502.2,309.6 L504.2,307.6 L506.1,305.7 L507.9,303.9 L509.6,302.3 L511.2,300.7 L512.7,299.2 L514.1,297.8 L515.4,296.4 L516.7,295.1 L517.9,293.9 L519.1,292.7 L520.2,291.6 L521.3,290.5 L522.4,289.5 L523.4,288.5 L524.3,287.5 L525.3,286.6 L526.2,285.7 L527.1,284.8 L527.9,283.9 L528.7,283.1 L529.5,282.3 L530.3,281.5 L531.1,280.8 L531.8,280.0 L532.5,279.3 L533.2,278.6 L533.9,277.9 L534.6,277.3 L535.2,276.6 L535.9,276.0 L536.5,275.3 L537.1,274.7 L537.7,274.1 L538.3,273.6 L538.9,273.0 L539.4,272.4 L540.0,271.9 L540.5,271.3 L541.0,270.8 L541.5,270.3 L542.1,269.8 L542.6,269.3 L543.0,268.8 L543.5,268.3 L544.0,267.8 L544.5,267.4 L544.9,266.9 L545.4,266.5 L545.8,266.0 L546.3,265.6 L546.7,265.2 L547.1,264.7 L547.5,264.3 L547.9,263.9 L548.3,263.5 L548.7,263.1 L549.1,262.7 L549.5,262.3 L549.9,261.9 L550.3,261.6 L550.6,261.2 L551.0,260.8 L551.4,260.5 L551.7,260.1 L552.1,259.8 L552.4,259.4 L552.8,259.1 L553.1,258.7 L553.5,258.4 L553.8,258.1 L554.1,257.7 L554.4,257.4 L554.8,257.1 L555.1,256.8 L555.4,256.5 L555.7,256.2 L556.0,255.8 L556.3,255.5 L556.6,255.2 L556.9,254.9 L557.2,254.7 L557.5,254.4 L557.8,254.1 L558.1,253.8 L558.3,253.5 L558.6,253.2 L558.9,253.0 L559.2,252.7 L559.4,252.4 L559.7,252.1 L560.0,251.9 L560.2,251.6 L560.5,251.4 L560.7,251.1 L561.0,250.8 L561.3,250.6 L561.5,250.3 L561.8,250.1 L562.0,249.8 L562.2,249.6 L562.5,249.4 L562.7,249.1 L563.0,248.9 L563.2,248.6 L563.4,248.4 L563.7,248.2 L563.9,247.9 L564.1,247.7 L564.3,247.5 L564.6,247.3 L564.8,247.0 L565.0,246.8 L565.2,246.6 L565.5,246.4 L565.7,246.2 L565.9,246.0 L566.1,245.7 L566.3,245.5 L566.5,245.3 L566.7,245.1 L566.9,244.9 L567.1,244.7 L567.3,244.5 L567.5,244.3 L567.7,244.1 L567.9,243.9 L568.1,243.7 L568.3,243.5 L568.5,243.3 L568.7,243.1 L568.9,242.9 L569.1,242.7 L569.3,242.6 L569.5,242.4 L569.7,242.2 L569.8,242.0 L570.0,241.8 L570.2,241.6 L570.4,241.4 L570.6,241.3 L570.8,241.1 L570.9,240.9 L571.1,240.7 L571.3,240.6 L571.5,240.4 L571.6,240.2 L571.8,240.0 L572.0,239.9 L572.2,239.7 L572.3,239.5 L572.5,239.4 L572.7,239.2 L572.8,239.0 L573.0,238.9 L573.2,238.7 L573.3,238.5 L573.5,238.4 L573.6,238.2 L573.8,238.0 L574.0,237.9 L574.1,237.7 L574.3,237.6 L574.4,237.4 L574.6,237.3 L574.7,237.1 L574.9,236.9 L575.1,236.8 L575.2,236.6 L575.4,236.5 L575.5,236.3 L575.7,236.2 L575.8,236.0 L576.0,235.9 L576.1,235.7 L576.3,235.6 L576.4,235.4 L576.5,235.3 L576.7,235.2 L576.8,235.0 L577.0,234.9 L577.1,234.7 L577.3,234.6 L577.4,234.4 L577.5,234.3 L577.7,234.2 L577.8,234.0 L578.0,233.9 L578.1,233.7 L578.2,233.6 L578.4,233.5 L578.5,233.3 L578.6,233.2 L578.8,233.1 L578.9,232.9 L579.0,232.8 L579.2,232.7 L579.3,232.5 L579.4,232.4 L579.6,232.3 L579.7,232.1 L579.8,232.0 L580.0,231.9 L580.1,231.8 L580.2,231.6 L580.3,231.5 L580.5,231.4 L580.6,231.3 L580.7,231.1 L580.8,231.0 L581.0,230.9 L581.1,230.8 L581.2,230.6 L581.3,230.5 L581.5,230.4 L581.6,230.3 L581.7,230.1 L581.8,230.0 L581.9,229.9 L582.1,229.8 L582.2,229.7 L582.3,229.6 L582.4,229.4 L582.5,229.3 L582.6,229.2 L582.8,229.1 L582.9,229.0 L583.0,228.9 L583.1,228.7 L583.2,228.6 L583.3,228.5 L583.4,228.4 L583.6,228.3 L583.7,228.2 L583.8,228.1 L583.9,227.9 L584.0,227.8 L584.1,227.7 L584.2,227.6 L584.3,227.5 L584.4,227.4 L584.6,227.3 L584.7,227.2 L584.8,227.1 L584.9,227.0 L585.0,226.9 L585.1,226.8 L585.2,226.6 L585.3,226.5 L585.4,226.4 L585.5,226.3 L585.6,226.2 L585.7,226.1 L585.8,226.0 L585.9,225.9 L586.0,225.8 L586.1,225.7 L586.2,225.6 L586.3,225.5 L586.4,225.4 L586.5,225.3 L586.6,225.2 L586.7,225.1 L586.8,225.0 L586.9,224.9 L587.0,224.8 L587.1,224.7 L587.2,224.6 L587.3,224.5 L587.4,224.4 L587.5,224.3 L587.6,224.2 L587.7,224.1 L587.8,224.0 L587.9,223.9 L588.0,223.8 L588.1,223.7 L588.2,223.6 L588.3,223.5 L588.4,223.4 L588.5,223.3 L588.6,223.3 L588.7,223.2 L588.8,223.1 L588.9,223.0 L589.0,222.9 L589.1,222.8 L589.2,222.7 L589.2,222.6 L589.3,222.5 L589.4,222.4 L589.5,222.3 L589.6,222.2 L589.7,222.1 L589.8,222.1 L589.9,222.0 L590.0,221.9 L590.1,221.8 L590.1,221.7 L590.2,221.6 L590.3,221.5 L590.4,221.4 L590.5,221.3 L590.6,221.3 L590.7,221.2 L590.8,221.1 L590.8,221.0 L590.9,220.9 L591.0,220.8 L591.1,220.7 L591.2,220.7 L591.3,220.6 L591.4,220.5 L591.4,220.4 L591.5,220.3 L591.6,220.2 L591.7,220.1 L591.8,220.1 L591.9,220.0 L592.0,219.9 L592.0,219.8 L592.1,219.7 L592.2,219.6 L592.3,219.6 L592.4,219.5 L592.4,219.4 L592.5,219.3 L592.6,219.2 L592.7,219.2 L592.8,219.1 L592.9,219.0 L592.9,218.9 L593.0,218.8 L593.1,218.8 L593.2,218.7 L593.3,218.6 L593.3,218.5 L593.4,218.4 L593.5,218.4 L593.6,218.3 L593.6,218.2 L593.7,218.1 L593.8,218.0 L593.9,218.0 L594.0,217.9 L594.0,217.8 L594.1,217.7 L594.2,217.7 L594.3,217.6 L594.3,217.5 L594.4,217.4 L594.5,217.3 L594.6,217.3 L594.6,217.2 L594.7,217.1 L594.8,217.0 L594.9,217.0 L594.9,216.9 L595.0,216.8 L595.1,216.7 L595.2,216.7 L595.2,216.6 L595.3,216.5 L595.4,216.5 L595.5,216.4 L595.5,216.3 L595.6,216.2 L595.7,216.2 L595.8,216.1 L595.8,216.0 L595.9,215.9 L596.0,215.9 L596.0,215.8 L596.1,215.7 L596.2,215.7 L596.3,215.6 L596.3,215.5 L596.4,215.4 L596.5,215.4 L596.5,215.3 L596.6,215.2 L596.7,215.2 L596.8,215.1 L596.8,215.0 L596.9,214.9 L597.0,214.9 L597.0,214.8 L597.1,214.7 L597.2,214.7 L597.2,214.6 L597.3,214.5 L597.4,214.5 L597.4,214.4 L597.5,214.3 L597.6,214.3 L597.7,214.2 L597.7,214.1 L597.8,214.1 L597.9,214.0 L597.9,213.9 L598.0,213.9" fill="none" stroke="#9a9994" stroke-width="1" stroke-dasharray="2 3"/>
<text x="593.9" y="243.9" font-size="10.5" font-weight="600" text-anchor="middle" fill="#52514e" stroke="#fcfcfb" stroke-width="3.5" paint-order="stroke">÷10</text>
<line x1="362" y1="386" x2="598" y2="150" stroke="#9a9994" stroke-width="1.5" stroke-dasharray="4 3"/>
<text x="432.8" y="311.2" font-size="10.5" font-weight="600" text-anchor="middle" fill="#52514e" stroke="#fcfcfb" stroke-width="3.5" paint-order="stroke" transform="rotate(-45 432.8 311.2)">igual</text>
<rect x="362" y="150" width="236" height="236" fill="none" stroke="#c9c8c2"/>
<path d="M362.0,366.8 L362.0,366.8 L362.0,347.6 L362.0,332.0 L381.2,299.1 L416.0,240.4 L481.0,189.0 L549.0,169.5 L579.0,164.3 L591.5,162.1 L598.0,160.8" fill="none" stroke="#c9c8c2" stroke-width="1"/>
<circle cx="362.0" cy="366.8" r="5" fill="#63BDB5" stroke="#fcfcfb" stroke-width="2"><title>β 3,0 · sistemática 10%: completa 0 · amostra 1</title></circle>
<circle cx="362.0" cy="366.8" r="5" fill="#5AB3AC" stroke="#fcfcfb" stroke-width="2"><title>β 2,5 · sistemática 10%: completa 0 · amostra 1</title></circle>
<circle cx="362.0" cy="347.6" r="5" fill="#51A9A3" stroke="#fcfcfb" stroke-width="2"><title>β 2,0 · sistemática 10%: completa 0 · amostra 3</title></circle>
<circle cx="362.0" cy="332.0" r="5" fill="#489F9A" stroke="#fcfcfb" stroke-width="2"><title>β 1,75 · sistemática 10%: completa 0 · amostra 6</title></circle>
<circle cx="381.2" cy="299.1" r="5" fill="#3F9591" stroke="#fcfcfb" stroke-width="2"><title>β 1,5 · sistemática 10%: completa 1 · amostra 22</title></circle>
<circle cx="416.0" cy="240.4" r="5" fill="#368B88" stroke="#fcfcfb" stroke-width="2"><title>β 1,25 · sistemática 10%: completa 6 · amostra 190</title></circle>
<circle cx="481.0" cy="189.0" r="5" fill="#2C8180" stroke="#fcfcfb" stroke-width="2"><title>β 1,0 · sistemática 10%: completa 72 · amostra 1.219k</title></circle>
<circle cx="549.0" cy="169.5" r="5" fill="#237777" stroke="#fcfcfb" stroke-width="2"><title>β 0,75 · sistemática 10%: completa 848 · amostra 2.461k</title></circle>
<circle cx="579.0" cy="164.3" r="5" fill="#1A6D6E" stroke="#fcfcfb" stroke-width="2"><title>β 0,5 · sistemática 10%: completa 2.501k · amostra 2.971k</title></circle>
<circle cx="591.5" cy="162.1" r="5" fill="#116365" stroke="#fcfcfb" stroke-width="2"><title>β 0,25 · sistemática 10%: completa 3.937k · amostra 3.211k</title></circle>
<circle cx="598.0" cy="160.8" r="5" fill="#08595C" stroke="#fcfcfb" stroke-width="2"><title>β 0,0 · sistemática 10%: completa 4.97k · amostra 3.371k</title></circle>
<text x="756.0" y="140" font-size="12.5" font-weight="600" text-anchor="middle" fill="#0b0b0b">sistemática 20%</text>
<line x1="638" y1="386.0" x2="874" y2="386.0" stroke="#e7e6e2"/>
<line x1="638.0" y1="150" x2="638.0" y2="386" stroke="#e7e6e2"/>
<line x1="638" y1="366.8" x2="874" y2="366.8" stroke="#e7e6e2"/>
<line x1="657.2" y1="150" x2="657.2" y2="386" stroke="#e7e6e2"/>
<line x1="638" y1="319.5" x2="874" y2="319.5" stroke="#e7e6e2"/>
<line x1="704.5" y1="150" x2="704.5" y2="386" stroke="#e7e6e2"/>
<line x1="638" y1="258.0" x2="874" y2="258.0" stroke="#e7e6e2"/>
<line x1="766.0" y1="150" x2="766.0" y2="386" stroke="#e7e6e2"/>
<line x1="638" y1="194.4" x2="874" y2="194.4" stroke="#e7e6e2"/>
<line x1="829.6" y1="150" x2="829.6" y2="386" stroke="#e7e6e2"/>
<path d="M638.0,322.2 L709.1,251.0 L727.3,232.9 L738.1,222.0 L745.9,214.2 L752.0,208.2 L757.0,203.2 L761.2,199.0 L764.8,195.3 L768.1,192.1 L771.0,189.2 L773.6,186.6 L776.0,184.2 L778.2,182.0 L780.2,179.9 L782.1,178.0 L783.9,176.2 L785.6,174.6 L787.2,173.0 L788.7,171.5 L790.1,170.1 L791.4,168.7 L792.7,167.4 L793.9,166.2 L795.1,165.0 L796.2,163.9 L797.3,162.8 L798.4,161.8 L799.4,160.8 L800.3,159.8 L801.3,158.9 L802.2,158.0 L803.1,157.1 L803.9,156.2 L804.7,155.4 L805.5,154.6 L806.3,153.8 L807.1,153.1 L807.8,152.3 L808.5,151.6 L809.2,150.9 L809.9,150.2" fill="none" stroke="#9a9994" stroke-width="1" stroke-dasharray="2 3"/>
<text x="781.9" y="162.2" font-size="10.5" font-weight="600" text-anchor="middle" fill="#52514e" stroke="#fcfcfb" stroke-width="3.5" paint-order="stroke">×10</text>
<path d="M709.1,378.7 L727.3,360.6 L738.1,349.7 L745.9,341.9 L752.0,335.9 L757.0,330.9 L761.2,326.7 L764.8,323.0 L768.1,319.8 L771.0,316.9 L773.6,314.2 L776.0,311.9 L778.2,309.6 L780.2,307.6 L782.1,305.7 L783.9,303.9 L785.6,302.3 L787.2,300.7 L788.7,299.2 L790.1,297.8 L791.4,296.4 L792.7,295.1 L793.9,293.9 L795.1,292.7 L796.2,291.6 L797.3,290.5 L798.4,289.5 L799.4,288.5 L800.3,287.5 L801.3,286.6 L802.2,285.7 L803.1,284.8 L803.9,283.9 L804.7,283.1 L805.5,282.3 L806.3,281.5 L807.1,280.8 L807.8,280.0 L808.5,279.3 L809.2,278.6 L809.9,277.9 L810.6,277.3 L811.2,276.6 L811.9,276.0 L812.5,275.3 L813.1,274.7 L813.7,274.1 L814.3,273.6 L814.9,273.0 L815.4,272.4 L816.0,271.9 L816.5,271.3 L817.0,270.8 L817.5,270.3 L818.1,269.8 L818.6,269.3 L819.0,268.8 L819.5,268.3 L820.0,267.8 L820.5,267.4 L820.9,266.9 L821.4,266.5 L821.8,266.0 L822.3,265.6 L822.7,265.2 L823.1,264.7 L823.5,264.3 L823.9,263.9 L824.3,263.5 L824.7,263.1 L825.1,262.7 L825.5,262.3 L825.9,261.9 L826.3,261.6 L826.6,261.2 L827.0,260.8 L827.4,260.5 L827.7,260.1 L828.1,259.8 L828.4,259.4 L828.8,259.1 L829.1,258.7 L829.5,258.4 L829.8,258.1 L830.1,257.7 L830.4,257.4 L830.8,257.1 L831.1,256.8 L831.4,256.5 L831.7,256.2 L832.0,255.8 L832.3,255.5 L832.6,255.2 L832.9,254.9 L833.2,254.7 L833.5,254.4 L833.8,254.1 L834.1,253.8 L834.3,253.5 L834.6,253.2 L834.9,253.0 L835.2,252.7 L835.4,252.4 L835.7,252.1 L836.0,251.9 L836.2,251.6 L836.5,251.4 L836.7,251.1 L837.0,250.8 L837.3,250.6 L837.5,250.3 L837.8,250.1 L838.0,249.8 L838.2,249.6 L838.5,249.4 L838.7,249.1 L839.0,248.9 L839.2,248.6 L839.4,248.4 L839.7,248.2 L839.9,247.9 L840.1,247.7 L840.3,247.5 L840.6,247.3 L840.8,247.0 L841.0,246.8 L841.2,246.6 L841.5,246.4 L841.7,246.2 L841.9,246.0 L842.1,245.7 L842.3,245.5 L842.5,245.3 L842.7,245.1 L842.9,244.9 L843.1,244.7 L843.3,244.5 L843.5,244.3 L843.7,244.1 L843.9,243.9 L844.1,243.7 L844.3,243.5 L844.5,243.3 L844.7,243.1 L844.9,242.9 L845.1,242.7 L845.3,242.6 L845.5,242.4 L845.7,242.2 L845.8,242.0 L846.0,241.8 L846.2,241.6 L846.4,241.4 L846.6,241.3 L846.8,241.1 L846.9,240.9 L847.1,240.7 L847.3,240.6 L847.5,240.4 L847.6,240.2 L847.8,240.0 L848.0,239.9 L848.2,239.7 L848.3,239.5 L848.5,239.4 L848.7,239.2 L848.8,239.0 L849.0,238.9 L849.2,238.7 L849.3,238.5 L849.5,238.4 L849.6,238.2 L849.8,238.0 L850.0,237.9 L850.1,237.7 L850.3,237.6 L850.4,237.4 L850.6,237.3 L850.7,237.1 L850.9,236.9 L851.1,236.8 L851.2,236.6 L851.4,236.5 L851.5,236.3 L851.7,236.2 L851.8,236.0 L852.0,235.9 L852.1,235.7 L852.3,235.6 L852.4,235.4 L852.5,235.3 L852.7,235.2 L852.8,235.0 L853.0,234.9 L853.1,234.7 L853.3,234.6 L853.4,234.4 L853.5,234.3 L853.7,234.2 L853.8,234.0 L854.0,233.9 L854.1,233.7 L854.2,233.6 L854.4,233.5 L854.5,233.3 L854.6,233.2 L854.8,233.1 L854.9,232.9 L855.0,232.8 L855.2,232.7 L855.3,232.5 L855.4,232.4 L855.6,232.3 L855.7,232.1 L855.8,232.0 L856.0,231.9 L856.1,231.8 L856.2,231.6 L856.3,231.5 L856.5,231.4 L856.6,231.3 L856.7,231.1 L856.8,231.0 L857.0,230.9 L857.1,230.8 L857.2,230.6 L857.3,230.5 L857.5,230.4 L857.6,230.3 L857.7,230.1 L857.8,230.0 L857.9,229.9 L858.1,229.8 L858.2,229.7 L858.3,229.6 L858.4,229.4 L858.5,229.3 L858.6,229.2 L858.8,229.1 L858.9,229.0 L859.0,228.9 L859.1,228.7 L859.2,228.6 L859.3,228.5 L859.4,228.4 L859.6,228.3 L859.7,228.2 L859.8,228.1 L859.9,227.9 L860.0,227.8 L860.1,227.7 L860.2,227.6 L860.3,227.5 L860.4,227.4 L860.6,227.3 L860.7,227.2 L860.8,227.1 L860.9,227.0 L861.0,226.9 L861.1,226.8 L861.2,226.6 L861.3,226.5 L861.4,226.4 L861.5,226.3 L861.6,226.2 L861.7,226.1 L861.8,226.0 L861.9,225.9 L862.0,225.8 L862.1,225.7 L862.2,225.6 L862.3,225.5 L862.4,225.4 L862.5,225.3 L862.6,225.2 L862.7,225.1 L862.8,225.0 L862.9,224.9 L863.0,224.8 L863.1,224.7 L863.2,224.6 L863.3,224.5 L863.4,224.4 L863.5,224.3 L863.6,224.2 L863.7,224.1 L863.8,224.0 L863.9,223.9 L864.0,223.8 L864.1,223.7 L864.2,223.6 L864.3,223.5 L864.4,223.4 L864.5,223.3 L864.6,223.3 L864.7,223.2 L864.8,223.1 L864.9,223.0 L865.0,222.9 L865.1,222.8 L865.2,222.7 L865.2,222.6 L865.3,222.5 L865.4,222.4 L865.5,222.3 L865.6,222.2 L865.7,222.1 L865.8,222.1 L865.9,222.0 L866.0,221.9 L866.1,221.8 L866.1,221.7 L866.2,221.6 L866.3,221.5 L866.4,221.4 L866.5,221.3 L866.6,221.3 L866.7,221.2 L866.8,221.1 L866.8,221.0 L866.9,220.9 L867.0,220.8 L867.1,220.7 L867.2,220.7 L867.3,220.6 L867.4,220.5 L867.4,220.4 L867.5,220.3 L867.6,220.2 L867.7,220.1 L867.8,220.1 L867.9,220.0 L868.0,219.9 L868.0,219.8 L868.1,219.7 L868.2,219.6 L868.3,219.6 L868.4,219.5 L868.4,219.4 L868.5,219.3 L868.6,219.2 L868.7,219.2 L868.8,219.1 L868.9,219.0 L868.9,218.9 L869.0,218.8 L869.1,218.8 L869.2,218.7 L869.3,218.6 L869.3,218.5 L869.4,218.4 L869.5,218.4 L869.6,218.3 L869.6,218.2 L869.7,218.1 L869.8,218.0 L869.9,218.0 L870.0,217.9 L870.0,217.8 L870.1,217.7 L870.2,217.7 L870.3,217.6 L870.3,217.5 L870.4,217.4 L870.5,217.3 L870.6,217.3 L870.6,217.2 L870.7,217.1 L870.8,217.0 L870.9,217.0 L870.9,216.9 L871.0,216.8 L871.1,216.7 L871.2,216.7 L871.2,216.6 L871.3,216.5 L871.4,216.5 L871.5,216.4 L871.5,216.3 L871.6,216.2 L871.7,216.2 L871.8,216.1 L871.8,216.0 L871.9,215.9 L872.0,215.9 L872.0,215.8 L872.1,215.7 L872.2,215.7 L872.3,215.6 L872.3,215.5 L872.4,215.4 L872.5,215.4 L872.5,215.3 L872.6,215.2 L872.7,215.2 L872.8,215.1 L872.8,215.0 L872.9,214.9 L873.0,214.9 L873.0,214.8 L873.1,214.7 L873.2,214.7 L873.2,214.6 L873.3,214.5 L873.4,214.5 L873.4,214.4 L873.5,214.3 L873.6,214.3 L873.7,214.2 L873.7,214.1 L873.8,214.1 L873.9,214.0 L873.9,213.9 L874.0,213.9" fill="none" stroke="#9a9994" stroke-width="1" stroke-dasharray="2 3"/>
<text x="869.9" y="243.9" font-size="10.5" font-weight="600" text-anchor="middle" fill="#52514e" stroke="#fcfcfb" stroke-width="3.5" paint-order="stroke">÷10</text>
<line x1="638" y1="386" x2="874" y2="150" stroke="#9a9994" stroke-width="1.5" stroke-dasharray="4 3"/>
<text x="708.8" y="311.2" font-size="10.5" font-weight="600" text-anchor="middle" fill="#52514e" stroke="#fcfcfb" stroke-width="3.5" paint-order="stroke" transform="rotate(-45 708.8 311.2)">igual</text>
<rect x="638" y="150" width="236" height="236" fill="none" stroke="#c9c8c2"/>
<path d="M638.0,386.0 L638.0,366.8 L638.0,355.5 L638.0,341.4 L657.2,314.9 L692.0,261.5 L757.0,198.7 L825.0,170.1 L855.0,160.7 L867.5,157.2 L874.0,155.4" fill="none" stroke="#c9c8c2" stroke-width="1"/>
<circle cx="638.0" cy="386.0" r="5" fill="#63BDB5" stroke="#fcfcfb" stroke-width="2"><title>β 3,0 · sistemática 20%: completa 0 · amostra 0</title></circle>
<circle cx="638.0" cy="366.8" r="5" fill="#5AB3AC" stroke="#fcfcfb" stroke-width="2"><title>β 2,5 · sistemática 20%: completa 0 · amostra 1</title></circle>
<circle cx="638.0" cy="355.5" r="5" fill="#51A9A3" stroke="#fcfcfb" stroke-width="2"><title>β 2,0 · sistemática 20%: completa 0 · amostra 2</title></circle>
<circle cx="638.0" cy="341.4" r="5" fill="#489F9A" stroke="#fcfcfb" stroke-width="2"><title>β 1,75 · sistemática 20%: completa 0 · amostra 4</title></circle>
<circle cx="657.2" cy="314.9" r="5" fill="#3F9591" stroke="#fcfcfb" stroke-width="2"><title>β 1,5 · sistemática 20%: completa 1 · amostra 12</title></circle>
<circle cx="692.0" cy="261.5" r="5" fill="#368B88" stroke="#fcfcfb" stroke-width="2"><title>β 1,25 · sistemática 20%: completa 6 · amostra 88</title></circle>
<circle cx="757.0" cy="198.7" r="5" fill="#2C8180" stroke="#fcfcfb" stroke-width="2"><title>β 1,0 · sistemática 20%: completa 72 · amostra 856</title></circle>
<circle cx="825.0" cy="170.1" r="5" fill="#237777" stroke="#fcfcfb" stroke-width="2"><title>β 0,75 · sistemática 20%: completa 848 · amostra 2.411k</title></circle>
<circle cx="855.0" cy="160.7" r="5" fill="#1A6D6E" stroke="#fcfcfb" stroke-width="2"><title>β 0,5 · sistemática 20%: completa 2.501k · amostra 3.379k</title></circle>
<circle cx="867.5" cy="157.2" r="5" fill="#116365" stroke="#fcfcfb" stroke-width="2"><title>β 0,25 · sistemática 20%: completa 3.937k · amostra 3.83k</title></circle>
<circle cx="874.0" cy="155.4" r="5" fill="#08595C" stroke="#fcfcfb" stroke-width="2"><title>β 0,0 · sistemática 20%: completa 4.97k · amostra 4.086k</title></circle>
<text x="204.0" y="428" font-size="12.5" font-weight="600" text-anchor="middle" fill="#0b0b0b">janela · take 1k 1%</text>
<line x1="86" y1="674.0" x2="322" y2="674.0" stroke="#e7e6e2"/>
<line x1="86.0" y1="438" x2="86.0" y2="674" stroke="#e7e6e2"/>
<text x="80" y="677.5" font-size="10" text-anchor="end" fill="#7a7974">0</text>
<line x1="86" y1="654.8" x2="322" y2="654.8" stroke="#e7e6e2"/>
<line x1="105.2" y1="438" x2="105.2" y2="674" stroke="#e7e6e2"/>
<text x="80" y="658.3" font-size="10" text-anchor="end" fill="#7a7974">1</text>
<line x1="86" y1="607.5" x2="322" y2="607.5" stroke="#e7e6e2"/>
<line x1="152.5" y1="438" x2="152.5" y2="674" stroke="#e7e6e2"/>
<text x="80" y="611.0" font-size="10" text-anchor="end" fill="#7a7974">10</text>
<line x1="86" y1="546.0" x2="322" y2="546.0" stroke="#e7e6e2"/>
<line x1="214.0" y1="438" x2="214.0" y2="674" stroke="#e7e6e2"/>
<text x="80" y="549.5" font-size="10" text-anchor="end" fill="#7a7974">100</text>
<line x1="86" y1="482.4" x2="322" y2="482.4" stroke="#e7e6e2"/>
<line x1="277.6" y1="438" x2="277.6" y2="674" stroke="#e7e6e2"/>
<text x="80" y="485.9" font-size="10" text-anchor="end" fill="#7a7974">1k</text>
<path d="M86.0,610.2 L157.1,539.0 L175.3,520.9 L186.1,510.0 L193.9,502.2 L200.0,496.2 L205.0,491.2 L209.2,487.0 L212.8,483.3 L216.1,480.1 L219.0,477.2 L221.6,474.6 L224.0,472.2 L226.2,470.0 L228.2,467.9 L230.1,466.0 L231.9,464.2 L233.6,462.6 L235.2,461.0 L236.7,459.5 L238.1,458.1 L239.4,456.7 L240.7,455.4 L241.9,454.2 L243.1,453.0 L244.2,451.9 L245.3,450.8 L246.4,449.8 L247.4,448.8 L248.3,447.8 L249.3,446.9 L250.2,446.0 L251.1,445.1 L251.9,444.2 L252.7,443.4 L253.5,442.6 L254.3,441.8 L255.1,441.1 L255.8,440.3 L256.5,439.6 L257.2,438.9 L257.9,438.2" fill="none" stroke="#9a9994" stroke-width="1" stroke-dasharray="2 3"/>
<text x="229.9" y="450.2" font-size="10.5" font-weight="600" text-anchor="middle" fill="#52514e" stroke="#fcfcfb" stroke-width="3.5" paint-order="stroke">×10</text>
<path d="M157.1,666.7 L175.3,648.6 L186.1,637.7 L193.9,629.9 L200.0,623.9 L205.0,618.9 L209.2,614.7 L212.8,611.0 L216.1,607.8 L219.0,604.9 L221.6,602.2 L224.0,599.9 L226.2,597.6 L228.2,595.6 L230.1,593.7 L231.9,591.9 L233.6,590.3 L235.2,588.7 L236.7,587.2 L238.1,585.8 L239.4,584.4 L240.7,583.1 L241.9,581.9 L243.1,580.7 L244.2,579.6 L245.3,578.5 L246.4,577.5 L247.4,576.5 L248.3,575.5 L249.3,574.6 L250.2,573.7 L251.1,572.8 L251.9,571.9 L252.7,571.1 L253.5,570.3 L254.3,569.5 L255.1,568.8 L255.8,568.0 L256.5,567.3 L257.2,566.6 L257.9,565.9 L258.6,565.3 L259.2,564.6 L259.9,564.0 L260.5,563.3 L261.1,562.7 L261.7,562.1 L262.3,561.6 L262.9,561.0 L263.4,560.4 L264.0,559.9 L264.5,559.3 L265.0,558.8 L265.5,558.3 L266.1,557.8 L266.6,557.3 L267.0,556.8 L267.5,556.3 L268.0,555.8 L268.5,555.4 L268.9,554.9 L269.4,554.5 L269.8,554.0 L270.3,553.6 L270.7,553.2 L271.1,552.7 L271.5,552.3 L271.9,551.9 L272.3,551.5 L272.7,551.1 L273.1,550.7 L273.5,550.3 L273.9,549.9 L274.3,549.6 L274.6,549.2 L275.0,548.8 L275.4,548.5 L275.7,548.1 L276.1,547.8 L276.4,547.4 L276.8,547.1 L277.1,546.7 L277.5,546.4 L277.8,546.1 L278.1,545.7 L278.4,545.4 L278.8,545.1 L279.1,544.8 L279.4,544.5 L279.7,544.2 L280.0,543.8 L280.3,543.5 L280.6,543.2 L280.9,542.9 L281.2,542.7 L281.5,542.4 L281.8,542.1 L282.1,541.8 L282.3,541.5 L282.6,541.2 L282.9,541.0 L283.2,540.7 L283.4,540.4 L283.7,540.1 L284.0,539.9 L284.2,539.6 L284.5,539.4 L284.7,539.1 L285.0,538.8 L285.3,538.6 L285.5,538.3 L285.8,538.1 L286.0,537.8 L286.2,537.6 L286.5,537.4 L286.7,537.1 L287.0,536.9 L287.2,536.6 L287.4,536.4 L287.7,536.2 L287.9,535.9 L288.1,535.7 L288.3,535.5 L288.6,535.3 L288.8,535.0 L289.0,534.8 L289.2,534.6 L289.5,534.4 L289.7,534.2 L289.9,534.0 L290.1,533.7 L290.3,533.5 L290.5,533.3 L290.7,533.1 L290.9,532.9 L291.1,532.7 L291.3,532.5 L291.5,532.3 L291.7,532.1 L291.9,531.9 L292.1,531.7 L292.3,531.5 L292.5,531.3 L292.7,531.1 L292.9,530.9 L293.1,530.7 L293.3,530.6 L293.5,530.4 L293.7,530.2 L293.8,530.0 L294.0,529.8 L294.2,529.6 L294.4,529.4 L294.6,529.3 L294.8,529.1 L294.9,528.9 L295.1,528.7 L295.3,528.6 L295.5,528.4 L295.6,528.2 L295.8,528.0 L296.0,527.9 L296.2,527.7 L296.3,527.5 L296.5,527.4 L296.7,527.2 L296.8,527.0 L297.0,526.9 L297.2,526.7 L297.3,526.5 L297.5,526.4 L297.6,526.2 L297.8,526.0 L298.0,525.9 L298.1,525.7 L298.3,525.6 L298.4,525.4 L298.6,525.3 L298.7,525.1 L298.9,524.9 L299.1,524.8 L299.2,524.6 L299.4,524.5 L299.5,524.3 L299.7,524.2 L299.8,524.0 L300.0,523.9 L300.1,523.7 L300.3,523.6 L300.4,523.4 L300.5,523.3 L300.7,523.2 L300.8,523.0 L301.0,522.9 L301.1,522.7 L301.3,522.6 L301.4,522.4 L301.5,522.3 L301.7,522.2 L301.8,522.0 L302.0,521.9 L302.1,521.7 L302.2,521.6 L302.4,521.5 L302.5,521.3 L302.6,521.2 L302.8,521.1 L302.9,520.9 L303.0,520.8 L303.2,520.7 L303.3,520.5 L303.4,520.4 L303.6,520.3 L303.7,520.1 L303.8,520.0 L304.0,519.9 L304.1,519.8 L304.2,519.6 L304.3,519.5 L304.5,519.4 L304.6,519.3 L304.7,519.1 L304.8,519.0 L305.0,518.9 L305.1,518.8 L305.2,518.6 L305.3,518.5 L305.5,518.4 L305.6,518.3 L305.7,518.1 L305.8,518.0 L305.9,517.9 L306.1,517.8 L306.2,517.7 L306.3,517.6 L306.4,517.4 L306.5,517.3 L306.6,517.2 L306.8,517.1 L306.9,517.0 L307.0,516.9 L307.1,516.7 L307.2,516.6 L307.3,516.5 L307.4,516.4 L307.6,516.3 L307.7,516.2 L307.8,516.1 L307.9,515.9 L308.0,515.8 L308.1,515.7 L308.2,515.6 L308.3,515.5 L308.4,515.4 L308.6,515.3 L308.7,515.2 L308.8,515.1 L308.9,515.0 L309.0,514.9 L309.1,514.8 L309.2,514.6 L309.3,514.5 L309.4,514.4 L309.5,514.3 L309.6,514.2 L309.7,514.1 L309.8,514.0 L309.9,513.9 L310.0,513.8 L310.1,513.7 L310.2,513.6 L310.3,513.5 L310.4,513.4 L310.5,513.3 L310.6,513.2 L310.7,513.1 L310.8,513.0 L310.9,512.9 L311.0,512.8 L311.1,512.7 L311.2,512.6 L311.3,512.5 L311.4,512.4 L311.5,512.3 L311.6,512.2 L311.7,512.1 L311.8,512.0 L311.9,511.9 L312.0,511.8 L312.1,511.7 L312.2,511.6 L312.3,511.5 L312.4,511.4 L312.5,511.3 L312.6,511.3 L312.7,511.2 L312.8,511.1 L312.9,511.0 L313.0,510.9 L313.1,510.8 L313.2,510.7 L313.2,510.6 L313.3,510.5 L313.4,510.4 L313.5,510.3 L313.6,510.2 L313.7,510.1 L313.8,510.1 L313.9,510.0 L314.0,509.9 L314.1,509.8 L314.1,509.7 L314.2,509.6 L314.3,509.5 L314.4,509.4 L314.5,509.3 L314.6,509.3 L314.7,509.2 L314.8,509.1 L314.8,509.0 L314.9,508.9 L315.0,508.8 L315.1,508.7 L315.2,508.7 L315.3,508.6 L315.4,508.5 L315.4,508.4 L315.5,508.3 L315.6,508.2 L315.7,508.1 L315.8,508.1 L315.9,508.0 L316.0,507.9 L316.0,507.8 L316.1,507.7 L316.2,507.6 L316.3,507.6 L316.4,507.5 L316.4,507.4 L316.5,507.3 L316.6,507.2 L316.7,507.2 L316.8,507.1 L316.9,507.0 L316.9,506.9 L317.0,506.8 L317.1,506.8 L317.2,506.7 L317.3,506.6 L317.3,506.5 L317.4,506.4 L317.5,506.4 L317.6,506.3 L317.6,506.2 L317.7,506.1 L317.8,506.0 L317.9,506.0 L318.0,505.9 L318.0,505.8 L318.1,505.7 L318.2,505.7 L318.3,505.6 L318.3,505.5 L318.4,505.4 L318.5,505.3 L318.6,505.3 L318.6,505.2 L318.7,505.1 L318.8,505.0 L318.9,505.0 L318.9,504.9 L319.0,504.8 L319.1,504.7 L319.2,504.7 L319.2,504.6 L319.3,504.5 L319.4,504.5 L319.5,504.4 L319.5,504.3 L319.6,504.2 L319.7,504.2 L319.8,504.1 L319.8,504.0 L319.9,503.9 L320.0,503.9 L320.0,503.8 L320.1,503.7 L320.2,503.7 L320.3,503.6 L320.3,503.5 L320.4,503.4 L320.5,503.4 L320.5,503.3 L320.6,503.2 L320.7,503.2 L320.8,503.1 L320.8,503.0 L320.9,502.9 L321.0,502.9 L321.0,502.8 L321.1,502.7 L321.2,502.7 L321.2,502.6 L321.3,502.5 L321.4,502.5 L321.4,502.4 L321.5,502.3 L321.6,502.3 L321.7,502.2 L321.7,502.1 L321.8,502.1 L321.9,502.0 L321.9,501.9 L322.0,501.9" fill="none" stroke="#9a9994" stroke-width="1" stroke-dasharray="2 3"/>
<text x="317.9" y="531.9" font-size="10.5" font-weight="600" text-anchor="middle" fill="#52514e" stroke="#fcfcfb" stroke-width="3.5" paint-order="stroke">÷10</text>
<line x1="86" y1="674" x2="322" y2="438" stroke="#9a9994" stroke-width="1.5" stroke-dasharray="4 3"/>
<text x="156.8" y="599.2" font-size="10.5" font-weight="600" text-anchor="middle" fill="#52514e" stroke="#fcfcfb" stroke-width="3.5" paint-order="stroke" transform="rotate(-45 156.8 599.2)">igual</text>
<rect x="86" y="438" width="236" height="236" fill="none" stroke="#c9c8c2"/>
<path d="M86.0,674.0 L86.0,674.0 L86.0,674.0 L86.0,674.0 L105.2,654.8 L140.0,635.6 L205.0,607.5 L273.0,564.4 L303.0,525.5 L315.5,499.4 L322.0,485.6" fill="none" stroke="#c9c8c2" stroke-width="1"/>
<circle cx="86.0" cy="674.0" r="5" fill="#63BDB5" stroke="#fcfcfb" stroke-width="2"><title>β 3,0 · janela · take 1k 1%: completa 0 · amostra 0</title></circle>
<circle cx="86.0" cy="674.0" r="5" fill="#5AB3AC" stroke="#fcfcfb" stroke-width="2"><title>β 2,5 · janela · take 1k 1%: completa 0 · amostra 0</title></circle>
<circle cx="86.0" cy="674.0" r="5" fill="#51A9A3" stroke="#fcfcfb" stroke-width="2"><title>β 2,0 · janela · take 1k 1%: completa 0 · amostra 0</title></circle>
<circle cx="86.0" cy="674.0" r="5" fill="#489F9A" stroke="#fcfcfb" stroke-width="2"><title>β 1,75 · janela · take 1k 1%: completa 0 · amostra 0</title></circle>
<circle cx="105.2" cy="654.8" r="5" fill="#3F9591" stroke="#fcfcfb" stroke-width="2"><title>β 1,5 · janela · take 1k 1%: completa 1 · amostra 1</title></circle>
<circle cx="140.0" cy="635.6" r="5" fill="#368B88" stroke="#fcfcfb" stroke-width="2"><title>β 1,25 · janela · take 1k 1%: completa 6 · amostra 3</title></circle>
<circle cx="205.0" cy="607.5" r="5" fill="#2C8180" stroke="#fcfcfb" stroke-width="2"><title>β 1,0 · janela · take 1k 1%: completa 72 · amostra 10</title></circle>
<circle cx="273.0" cy="564.4" r="5" fill="#237777" stroke="#fcfcfb" stroke-width="2"><title>β 0,75 · janela · take 1k 1%: completa 848 · amostra 51</title></circle>
<circle cx="303.0" cy="525.5" r="5" fill="#1A6D6E" stroke="#fcfcfb" stroke-width="2"><title>β 0,5 · janela · take 1k 1%: completa 2.501k · amostra 211</title></circle>
<circle cx="315.5" cy="499.4" r="5" fill="#116365" stroke="#fcfcfb" stroke-width="2"><title>β 0,25 · janela · take 1k 1%: completa 3.937k · amostra 541</title></circle>
<circle cx="322.0" cy="485.6" r="5" fill="#08595C" stroke="#fcfcfb" stroke-width="2"><title>β 0,0 · janela · take 1k 1%: completa 4.97k · amostra 893</title></circle>
<text x="480.0" y="428" font-size="12.5" font-weight="600" text-anchor="middle" fill="#0b0b0b">janela · take 1k 10%</text>
<line x1="362" y1="674.0" x2="598" y2="674.0" stroke="#e7e6e2"/>
<line x1="362.0" y1="438" x2="362.0" y2="674" stroke="#e7e6e2"/>
<line x1="362" y1="654.8" x2="598" y2="654.8" stroke="#e7e6e2"/>
<line x1="381.2" y1="438" x2="381.2" y2="674" stroke="#e7e6e2"/>
<line x1="362" y1="607.5" x2="598" y2="607.5" stroke="#e7e6e2"/>
<line x1="428.5" y1="438" x2="428.5" y2="674" stroke="#e7e6e2"/>
<line x1="362" y1="546.0" x2="598" y2="546.0" stroke="#e7e6e2"/>
<line x1="490.0" y1="438" x2="490.0" y2="674" stroke="#e7e6e2"/>
<line x1="362" y1="482.4" x2="598" y2="482.4" stroke="#e7e6e2"/>
<line x1="553.6" y1="438" x2="553.6" y2="674" stroke="#e7e6e2"/>
<path d="M362.0,610.2 L433.1,539.0 L451.3,520.9 L462.1,510.0 L469.9,502.2 L476.0,496.2 L481.0,491.2 L485.2,487.0 L488.8,483.3 L492.1,480.1 L495.0,477.2 L497.6,474.6 L500.0,472.2 L502.2,470.0 L504.2,467.9 L506.1,466.0 L507.9,464.2 L509.6,462.6 L511.2,461.0 L512.7,459.5 L514.1,458.1 L515.4,456.7 L516.7,455.4 L517.9,454.2 L519.1,453.0 L520.2,451.9 L521.3,450.8 L522.4,449.8 L523.4,448.8 L524.3,447.8 L525.3,446.9 L526.2,446.0 L527.1,445.1 L527.9,444.2 L528.7,443.4 L529.5,442.6 L530.3,441.8 L531.1,441.1 L531.8,440.3 L532.5,439.6 L533.2,438.9 L533.9,438.2" fill="none" stroke="#9a9994" stroke-width="1" stroke-dasharray="2 3"/>
<text x="505.9" y="450.2" font-size="10.5" font-weight="600" text-anchor="middle" fill="#52514e" stroke="#fcfcfb" stroke-width="3.5" paint-order="stroke">×10</text>
<path d="M433.1,666.7 L451.3,648.6 L462.1,637.7 L469.9,629.9 L476.0,623.9 L481.0,618.9 L485.2,614.7 L488.8,611.0 L492.1,607.8 L495.0,604.9 L497.6,602.2 L500.0,599.9 L502.2,597.6 L504.2,595.6 L506.1,593.7 L507.9,591.9 L509.6,590.3 L511.2,588.7 L512.7,587.2 L514.1,585.8 L515.4,584.4 L516.7,583.1 L517.9,581.9 L519.1,580.7 L520.2,579.6 L521.3,578.5 L522.4,577.5 L523.4,576.5 L524.3,575.5 L525.3,574.6 L526.2,573.7 L527.1,572.8 L527.9,571.9 L528.7,571.1 L529.5,570.3 L530.3,569.5 L531.1,568.8 L531.8,568.0 L532.5,567.3 L533.2,566.6 L533.9,565.9 L534.6,565.3 L535.2,564.6 L535.9,564.0 L536.5,563.3 L537.1,562.7 L537.7,562.1 L538.3,561.6 L538.9,561.0 L539.4,560.4 L540.0,559.9 L540.5,559.3 L541.0,558.8 L541.5,558.3 L542.1,557.8 L542.6,557.3 L543.0,556.8 L543.5,556.3 L544.0,555.8 L544.5,555.4 L544.9,554.9 L545.4,554.5 L545.8,554.0 L546.3,553.6 L546.7,553.2 L547.1,552.7 L547.5,552.3 L547.9,551.9 L548.3,551.5 L548.7,551.1 L549.1,550.7 L549.5,550.3 L549.9,549.9 L550.3,549.6 L550.6,549.2 L551.0,548.8 L551.4,548.5 L551.7,548.1 L552.1,547.8 L552.4,547.4 L552.8,547.1 L553.1,546.7 L553.5,546.4 L553.8,546.1 L554.1,545.7 L554.4,545.4 L554.8,545.1 L555.1,544.8 L555.4,544.5 L555.7,544.2 L556.0,543.8 L556.3,543.5 L556.6,543.2 L556.9,542.9 L557.2,542.7 L557.5,542.4 L557.8,542.1 L558.1,541.8 L558.3,541.5 L558.6,541.2 L558.9,541.0 L559.2,540.7 L559.4,540.4 L559.7,540.1 L560.0,539.9 L560.2,539.6 L560.5,539.4 L560.7,539.1 L561.0,538.8 L561.3,538.6 L561.5,538.3 L561.8,538.1 L562.0,537.8 L562.2,537.6 L562.5,537.4 L562.7,537.1 L563.0,536.9 L563.2,536.6 L563.4,536.4 L563.7,536.2 L563.9,535.9 L564.1,535.7 L564.3,535.5 L564.6,535.3 L564.8,535.0 L565.0,534.8 L565.2,534.6 L565.5,534.4 L565.7,534.2 L565.9,534.0 L566.1,533.7 L566.3,533.5 L566.5,533.3 L566.7,533.1 L566.9,532.9 L567.1,532.7 L567.3,532.5 L567.5,532.3 L567.7,532.1 L567.9,531.9 L568.1,531.7 L568.3,531.5 L568.5,531.3 L568.7,531.1 L568.9,530.9 L569.1,530.7 L569.3,530.6 L569.5,530.4 L569.7,530.2 L569.8,530.0 L570.0,529.8 L570.2,529.6 L570.4,529.4 L570.6,529.3 L570.8,529.1 L570.9,528.9 L571.1,528.7 L571.3,528.6 L571.5,528.4 L571.6,528.2 L571.8,528.0 L572.0,527.9 L572.2,527.7 L572.3,527.5 L572.5,527.4 L572.7,527.2 L572.8,527.0 L573.0,526.9 L573.2,526.7 L573.3,526.5 L573.5,526.4 L573.6,526.2 L573.8,526.0 L574.0,525.9 L574.1,525.7 L574.3,525.6 L574.4,525.4 L574.6,525.3 L574.7,525.1 L574.9,524.9 L575.1,524.8 L575.2,524.6 L575.4,524.5 L575.5,524.3 L575.7,524.2 L575.8,524.0 L576.0,523.9 L576.1,523.7 L576.3,523.6 L576.4,523.4 L576.5,523.3 L576.7,523.2 L576.8,523.0 L577.0,522.9 L577.1,522.7 L577.3,522.6 L577.4,522.4 L577.5,522.3 L577.7,522.2 L577.8,522.0 L578.0,521.9 L578.1,521.7 L578.2,521.6 L578.4,521.5 L578.5,521.3 L578.6,521.2 L578.8,521.1 L578.9,520.9 L579.0,520.8 L579.2,520.7 L579.3,520.5 L579.4,520.4 L579.6,520.3 L579.7,520.1 L579.8,520.0 L580.0,519.9 L580.1,519.8 L580.2,519.6 L580.3,519.5 L580.5,519.4 L580.6,519.3 L580.7,519.1 L580.8,519.0 L581.0,518.9 L581.1,518.8 L581.2,518.6 L581.3,518.5 L581.5,518.4 L581.6,518.3 L581.7,518.1 L581.8,518.0 L581.9,517.9 L582.1,517.8 L582.2,517.7 L582.3,517.6 L582.4,517.4 L582.5,517.3 L582.6,517.2 L582.8,517.1 L582.9,517.0 L583.0,516.9 L583.1,516.7 L583.2,516.6 L583.3,516.5 L583.4,516.4 L583.6,516.3 L583.7,516.2 L583.8,516.1 L583.9,515.9 L584.0,515.8 L584.1,515.7 L584.2,515.6 L584.3,515.5 L584.4,515.4 L584.6,515.3 L584.7,515.2 L584.8,515.1 L584.9,515.0 L585.0,514.9 L585.1,514.8 L585.2,514.6 L585.3,514.5 L585.4,514.4 L585.5,514.3 L585.6,514.2 L585.7,514.1 L585.8,514.0 L585.9,513.9 L586.0,513.8 L586.1,513.7 L586.2,513.6 L586.3,513.5 L586.4,513.4 L586.5,513.3 L586.6,513.2 L586.7,513.1 L586.8,513.0 L586.9,512.9 L587.0,512.8 L587.1,512.7 L587.2,512.6 L587.3,512.5 L587.4,512.4 L587.5,512.3 L587.6,512.2 L587.7,512.1 L587.8,512.0 L587.9,511.9 L588.0,511.8 L588.1,511.7 L588.2,511.6 L588.3,511.5 L588.4,511.4 L588.5,511.3 L588.6,511.3 L588.7,511.2 L588.8,511.1 L588.9,511.0 L589.0,510.9 L589.1,510.8 L589.2,510.7 L589.2,510.6 L589.3,510.5 L589.4,510.4 L589.5,510.3 L589.6,510.2 L589.7,510.1 L589.8,510.1 L589.9,510.0 L590.0,509.9 L590.1,509.8 L590.1,509.7 L590.2,509.6 L590.3,509.5 L590.4,509.4 L590.5,509.3 L590.6,509.3 L590.7,509.2 L590.8,509.1 L590.8,509.0 L590.9,508.9 L591.0,508.8 L591.1,508.7 L591.2,508.7 L591.3,508.6 L591.4,508.5 L591.4,508.4 L591.5,508.3 L591.6,508.2 L591.7,508.1 L591.8,508.1 L591.9,508.0 L592.0,507.9 L592.0,507.8 L592.1,507.7 L592.2,507.6 L592.3,507.6 L592.4,507.5 L592.4,507.4 L592.5,507.3 L592.6,507.2 L592.7,507.2 L592.8,507.1 L592.9,507.0 L592.9,506.9 L593.0,506.8 L593.1,506.8 L593.2,506.7 L593.3,506.6 L593.3,506.5 L593.4,506.4 L593.5,506.4 L593.6,506.3 L593.6,506.2 L593.7,506.1 L593.8,506.0 L593.9,506.0 L594.0,505.9 L594.0,505.8 L594.1,505.7 L594.2,505.7 L594.3,505.6 L594.3,505.5 L594.4,505.4 L594.5,505.3 L594.6,505.3 L594.6,505.2 L594.7,505.1 L594.8,505.0 L594.9,505.0 L594.9,504.9 L595.0,504.8 L595.1,504.7 L595.2,504.7 L595.2,504.6 L595.3,504.5 L595.4,504.5 L595.5,504.4 L595.5,504.3 L595.6,504.2 L595.7,504.2 L595.8,504.1 L595.8,504.0 L595.9,503.9 L596.0,503.9 L596.0,503.8 L596.1,503.7 L596.2,503.7 L596.3,503.6 L596.3,503.5 L596.4,503.4 L596.5,503.4 L596.5,503.3 L596.6,503.2 L596.7,503.2 L596.8,503.1 L596.8,503.0 L596.9,502.9 L597.0,502.9 L597.0,502.8 L597.1,502.7 L597.2,502.7 L597.2,502.6 L597.3,502.5 L597.4,502.5 L597.4,502.4 L597.5,502.3 L597.6,502.3 L597.7,502.2 L597.7,502.1 L597.8,502.1 L597.9,502.0 L597.9,501.9 L598.0,501.9" fill="none" stroke="#9a9994" stroke-width="1" stroke-dasharray="2 3"/>
<text x="593.9" y="531.9" font-size="10.5" font-weight="600" text-anchor="middle" fill="#52514e" stroke="#fcfcfb" stroke-width="3.5" paint-order="stroke">÷10</text>
<line x1="362" y1="674" x2="598" y2="438" stroke="#9a9994" stroke-width="1.5" stroke-dasharray="4 3"/>
<text x="432.8" y="599.2" font-size="10.5" font-weight="600" text-anchor="middle" fill="#52514e" stroke="#fcfcfb" stroke-width="3.5" paint-order="stroke" transform="rotate(-45 432.8 599.2)">igual</text>
<rect x="362" y="438" width="236" height="236" fill="none" stroke="#c9c8c2"/>
<path d="M362.0,674.0 L362.0,674.0 L362.0,674.0 L362.0,674.0 L381.2,654.8 L416.0,635.6 L481.0,584.7 L549.0,508.6 L579.0,462.3 L591.5,452.4 L598.0,448.9" fill="none" stroke="#c9c8c2" stroke-width="1"/>
<circle cx="362.0" cy="674.0" r="5" fill="#63BDB5" stroke="#fcfcfb" stroke-width="2"><title>β 3,0 · janela · take 1k 10%: completa 0 · amostra 0</title></circle>
<circle cx="362.0" cy="674.0" r="5" fill="#5AB3AC" stroke="#fcfcfb" stroke-width="2"><title>β 2,5 · janela · take 1k 10%: completa 0 · amostra 0</title></circle>
<circle cx="362.0" cy="674.0" r="5" fill="#51A9A3" stroke="#fcfcfb" stroke-width="2"><title>β 2,0 · janela · take 1k 10%: completa 0 · amostra 0</title></circle>
<circle cx="362.0" cy="674.0" r="5" fill="#489F9A" stroke="#fcfcfb" stroke-width="2"><title>β 1,75 · janela · take 1k 10%: completa 0 · amostra 0</title></circle>
<circle cx="381.2" cy="654.8" r="5" fill="#3F9591" stroke="#fcfcfb" stroke-width="2"><title>β 1,5 · janela · take 1k 10%: completa 1 · amostra 1</title></circle>
<circle cx="416.0" cy="635.6" r="5" fill="#368B88" stroke="#fcfcfb" stroke-width="2"><title>β 1,25 · janela · take 1k 10%: completa 6 · amostra 3</title></circle>
<circle cx="481.0" cy="584.7" r="5" fill="#2C8180" stroke="#fcfcfb" stroke-width="2"><title>β 1,0 · janela · take 1k 10%: completa 72 · amostra 24</title></circle>
<circle cx="549.0" cy="508.6" r="5" fill="#237777" stroke="#fcfcfb" stroke-width="2"><title>β 0,75 · janela · take 1k 10%: completa 848 · amostra 389</title></circle>
<circle cx="579.0" cy="462.3" r="5" fill="#1A6D6E" stroke="#fcfcfb" stroke-width="2"><title>β 0,5 · janela · take 1k 10%: completa 2.501k · amostra 2.068k</title></circle>
<circle cx="591.5" cy="452.4" r="5" fill="#116365" stroke="#fcfcfb" stroke-width="2"><title>β 0,25 · janela · take 1k 10%: completa 3.937k · amostra 2.952k</title></circle>
<circle cx="598.0" cy="448.9" r="5" fill="#08595C" stroke="#fcfcfb" stroke-width="2"><title>β 0,0 · janela · take 1k 10%: completa 4.97k · amostra 3.349k</title></circle>
<text x="756.0" y="428" font-size="12.5" font-weight="600" text-anchor="middle" fill="#0b0b0b">janela · take 1k 20%</text>
<line x1="638" y1="674.0" x2="874" y2="674.0" stroke="#e7e6e2"/>
<line x1="638.0" y1="438" x2="638.0" y2="674" stroke="#e7e6e2"/>
<line x1="638" y1="654.8" x2="874" y2="654.8" stroke="#e7e6e2"/>
<line x1="657.2" y1="438" x2="657.2" y2="674" stroke="#e7e6e2"/>
<line x1="638" y1="607.5" x2="874" y2="607.5" stroke="#e7e6e2"/>
<line x1="704.5" y1="438" x2="704.5" y2="674" stroke="#e7e6e2"/>
<line x1="638" y1="546.0" x2="874" y2="546.0" stroke="#e7e6e2"/>
<line x1="766.0" y1="438" x2="766.0" y2="674" stroke="#e7e6e2"/>
<line x1="638" y1="482.4" x2="874" y2="482.4" stroke="#e7e6e2"/>
<line x1="829.6" y1="438" x2="829.6" y2="674" stroke="#e7e6e2"/>
<path d="M638.0,610.2 L709.1,539.0 L727.3,520.9 L738.1,510.0 L745.9,502.2 L752.0,496.2 L757.0,491.2 L761.2,487.0 L764.8,483.3 L768.1,480.1 L771.0,477.2 L773.6,474.6 L776.0,472.2 L778.2,470.0 L780.2,467.9 L782.1,466.0 L783.9,464.2 L785.6,462.6 L787.2,461.0 L788.7,459.5 L790.1,458.1 L791.4,456.7 L792.7,455.4 L793.9,454.2 L795.1,453.0 L796.2,451.9 L797.3,450.8 L798.4,449.8 L799.4,448.8 L800.3,447.8 L801.3,446.9 L802.2,446.0 L803.1,445.1 L803.9,444.2 L804.7,443.4 L805.5,442.6 L806.3,441.8 L807.1,441.1 L807.8,440.3 L808.5,439.6 L809.2,438.9 L809.9,438.2" fill="none" stroke="#9a9994" stroke-width="1" stroke-dasharray="2 3"/>
<text x="781.9" y="450.2" font-size="10.5" font-weight="600" text-anchor="middle" fill="#52514e" stroke="#fcfcfb" stroke-width="3.5" paint-order="stroke">×10</text>
<path d="M709.1,666.7 L727.3,648.6 L738.1,637.7 L745.9,629.9 L752.0,623.9 L757.0,618.9 L761.2,614.7 L764.8,611.0 L768.1,607.8 L771.0,604.9 L773.6,602.2 L776.0,599.9 L778.2,597.6 L780.2,595.6 L782.1,593.7 L783.9,591.9 L785.6,590.3 L787.2,588.7 L788.7,587.2 L790.1,585.8 L791.4,584.4 L792.7,583.1 L793.9,581.9 L795.1,580.7 L796.2,579.6 L797.3,578.5 L798.4,577.5 L799.4,576.5 L800.3,575.5 L801.3,574.6 L802.2,573.7 L803.1,572.8 L803.9,571.9 L804.7,571.1 L805.5,570.3 L806.3,569.5 L807.1,568.8 L807.8,568.0 L808.5,567.3 L809.2,566.6 L809.9,565.9 L810.6,565.3 L811.2,564.6 L811.9,564.0 L812.5,563.3 L813.1,562.7 L813.7,562.1 L814.3,561.6 L814.9,561.0 L815.4,560.4 L816.0,559.9 L816.5,559.3 L817.0,558.8 L817.5,558.3 L818.1,557.8 L818.6,557.3 L819.0,556.8 L819.5,556.3 L820.0,555.8 L820.5,555.4 L820.9,554.9 L821.4,554.5 L821.8,554.0 L822.3,553.6 L822.7,553.2 L823.1,552.7 L823.5,552.3 L823.9,551.9 L824.3,551.5 L824.7,551.1 L825.1,550.7 L825.5,550.3 L825.9,549.9 L826.3,549.6 L826.6,549.2 L827.0,548.8 L827.4,548.5 L827.7,548.1 L828.1,547.8 L828.4,547.4 L828.8,547.1 L829.1,546.7 L829.5,546.4 L829.8,546.1 L830.1,545.7 L830.4,545.4 L830.8,545.1 L831.1,544.8 L831.4,544.5 L831.7,544.2 L832.0,543.8 L832.3,543.5 L832.6,543.2 L832.9,542.9 L833.2,542.7 L833.5,542.4 L833.8,542.1 L834.1,541.8 L834.3,541.5 L834.6,541.2 L834.9,541.0 L835.2,540.7 L835.4,540.4 L835.7,540.1 L836.0,539.9 L836.2,539.6 L836.5,539.4 L836.7,539.1 L837.0,538.8 L837.3,538.6 L837.5,538.3 L837.8,538.1 L838.0,537.8 L838.2,537.6 L838.5,537.4 L838.7,537.1 L839.0,536.9 L839.2,536.6 L839.4,536.4 L839.7,536.2 L839.9,535.9 L840.1,535.7 L840.3,535.5 L840.6,535.3 L840.8,535.0 L841.0,534.8 L841.2,534.6 L841.5,534.4 L841.7,534.2 L841.9,534.0 L842.1,533.7 L842.3,533.5 L842.5,533.3 L842.7,533.1 L842.9,532.9 L843.1,532.7 L843.3,532.5 L843.5,532.3 L843.7,532.1 L843.9,531.9 L844.1,531.7 L844.3,531.5 L844.5,531.3 L844.7,531.1 L844.9,530.9 L845.1,530.7 L845.3,530.6 L845.5,530.4 L845.7,530.2 L845.8,530.0 L846.0,529.8 L846.2,529.6 L846.4,529.4 L846.6,529.3 L846.8,529.1 L846.9,528.9 L847.1,528.7 L847.3,528.6 L847.5,528.4 L847.6,528.2 L847.8,528.0 L848.0,527.9 L848.2,527.7 L848.3,527.5 L848.5,527.4 L848.7,527.2 L848.8,527.0 L849.0,526.9 L849.2,526.7 L849.3,526.5 L849.5,526.4 L849.6,526.2 L849.8,526.0 L850.0,525.9 L850.1,525.7 L850.3,525.6 L850.4,525.4 L850.6,525.3 L850.7,525.1 L850.9,524.9 L851.1,524.8 L851.2,524.6 L851.4,524.5 L851.5,524.3 L851.7,524.2 L851.8,524.0 L852.0,523.9 L852.1,523.7 L852.3,523.6 L852.4,523.4 L852.5,523.3 L852.7,523.2 L852.8,523.0 L853.0,522.9 L853.1,522.7 L853.3,522.6 L853.4,522.4 L853.5,522.3 L853.7,522.2 L853.8,522.0 L854.0,521.9 L854.1,521.7 L854.2,521.6 L854.4,521.5 L854.5,521.3 L854.6,521.2 L854.8,521.1 L854.9,520.9 L855.0,520.8 L855.2,520.7 L855.3,520.5 L855.4,520.4 L855.6,520.3 L855.7,520.1 L855.8,520.0 L856.0,519.9 L856.1,519.8 L856.2,519.6 L856.3,519.5 L856.5,519.4 L856.6,519.3 L856.7,519.1 L856.8,519.0 L857.0,518.9 L857.1,518.8 L857.2,518.6 L857.3,518.5 L857.5,518.4 L857.6,518.3 L857.7,518.1 L857.8,518.0 L857.9,517.9 L858.1,517.8 L858.2,517.7 L858.3,517.6 L858.4,517.4 L858.5,517.3 L858.6,517.2 L858.8,517.1 L858.9,517.0 L859.0,516.9 L859.1,516.7 L859.2,516.6 L859.3,516.5 L859.4,516.4 L859.6,516.3 L859.7,516.2 L859.8,516.1 L859.9,515.9 L860.0,515.8 L860.1,515.7 L860.2,515.6 L860.3,515.5 L860.4,515.4 L860.6,515.3 L860.7,515.2 L860.8,515.1 L860.9,515.0 L861.0,514.9 L861.1,514.8 L861.2,514.6 L861.3,514.5 L861.4,514.4 L861.5,514.3 L861.6,514.2 L861.7,514.1 L861.8,514.0 L861.9,513.9 L862.0,513.8 L862.1,513.7 L862.2,513.6 L862.3,513.5 L862.4,513.4 L862.5,513.3 L862.6,513.2 L862.7,513.1 L862.8,513.0 L862.9,512.9 L863.0,512.8 L863.1,512.7 L863.2,512.6 L863.3,512.5 L863.4,512.4 L863.5,512.3 L863.6,512.2 L863.7,512.1 L863.8,512.0 L863.9,511.9 L864.0,511.8 L864.1,511.7 L864.2,511.6 L864.3,511.5 L864.4,511.4 L864.5,511.3 L864.6,511.3 L864.7,511.2 L864.8,511.1 L864.9,511.0 L865.0,510.9 L865.1,510.8 L865.2,510.7 L865.2,510.6 L865.3,510.5 L865.4,510.4 L865.5,510.3 L865.6,510.2 L865.7,510.1 L865.8,510.1 L865.9,510.0 L866.0,509.9 L866.1,509.8 L866.1,509.7 L866.2,509.6 L866.3,509.5 L866.4,509.4 L866.5,509.3 L866.6,509.3 L866.7,509.2 L866.8,509.1 L866.8,509.0 L866.9,508.9 L867.0,508.8 L867.1,508.7 L867.2,508.7 L867.3,508.6 L867.4,508.5 L867.4,508.4 L867.5,508.3 L867.6,508.2 L867.7,508.1 L867.8,508.1 L867.9,508.0 L868.0,507.9 L868.0,507.8 L868.1,507.7 L868.2,507.6 L868.3,507.6 L868.4,507.5 L868.4,507.4 L868.5,507.3 L868.6,507.2 L868.7,507.2 L868.8,507.1 L868.9,507.0 L868.9,506.9 L869.0,506.8 L869.1,506.8 L869.2,506.7 L869.3,506.6 L869.3,506.5 L869.4,506.4 L869.5,506.4 L869.6,506.3 L869.6,506.2 L869.7,506.1 L869.8,506.0 L869.9,506.0 L870.0,505.9 L870.0,505.8 L870.1,505.7 L870.2,505.7 L870.3,505.6 L870.3,505.5 L870.4,505.4 L870.5,505.3 L870.6,505.3 L870.6,505.2 L870.7,505.1 L870.8,505.0 L870.9,505.0 L870.9,504.9 L871.0,504.8 L871.1,504.7 L871.2,504.7 L871.2,504.6 L871.3,504.5 L871.4,504.5 L871.5,504.4 L871.5,504.3 L871.6,504.2 L871.7,504.2 L871.8,504.1 L871.8,504.0 L871.9,503.9 L872.0,503.9 L872.0,503.8 L872.1,503.7 L872.2,503.7 L872.3,503.6 L872.3,503.5 L872.4,503.4 L872.5,503.4 L872.5,503.3 L872.6,503.2 L872.7,503.2 L872.8,503.1 L872.8,503.0 L872.9,502.9 L873.0,502.9 L873.0,502.8 L873.1,502.7 L873.2,502.7 L873.2,502.6 L873.3,502.5 L873.4,502.5 L873.4,502.4 L873.5,502.3 L873.6,502.3 L873.7,502.2 L873.7,502.1 L873.8,502.1 L873.9,502.0 L873.9,501.9 L874.0,501.9" fill="none" stroke="#9a9994" stroke-width="1" stroke-dasharray="2 3"/>
<text x="869.9" y="531.9" font-size="10.5" font-weight="600" text-anchor="middle" fill="#52514e" stroke="#fcfcfb" stroke-width="3.5" paint-order="stroke">÷10</text>
<line x1="638" y1="674" x2="874" y2="438" stroke="#9a9994" stroke-width="1.5" stroke-dasharray="4 3"/>
<text x="708.8" y="599.2" font-size="10.5" font-weight="600" text-anchor="middle" fill="#52514e" stroke="#fcfcfb" stroke-width="3.5" paint-order="stroke" transform="rotate(-45 708.8 599.2)">igual</text>
<rect x="638" y="438" width="236" height="236" fill="none" stroke="#c9c8c2"/>
<path d="M638.0,674.0 L638.0,674.0 L638.0,674.0 L638.0,674.0 L657.2,654.8 L692.0,629.4 L757.0,572.4 L825.0,487.7 L855.0,454.4 L867.5,446.4 L874.0,443.5" fill="none" stroke="#c9c8c2" stroke-width="1"/>
<circle cx="638.0" cy="674.0" r="5" fill="#63BDB5" stroke="#fcfcfb" stroke-width="2"><title>β 3,0 · janela · take 1k 20%: completa 0 · amostra 0</title></circle>
<circle cx="638.0" cy="674.0" r="5" fill="#5AB3AC" stroke="#fcfcfb" stroke-width="2"><title>β 2,5 · janela · take 1k 20%: completa 0 · amostra 0</title></circle>
<circle cx="638.0" cy="674.0" r="5" fill="#51A9A3" stroke="#fcfcfb" stroke-width="2"><title>β 2,0 · janela · take 1k 20%: completa 0 · amostra 0</title></circle>
<circle cx="638.0" cy="674.0" r="5" fill="#489F9A" stroke="#fcfcfb" stroke-width="2"><title>β 1,75 · janela · take 1k 20%: completa 0 · amostra 0</title></circle>
<circle cx="657.2" cy="654.8" r="5" fill="#3F9591" stroke="#fcfcfb" stroke-width="2"><title>β 1,5 · janela · take 1k 20%: completa 1 · amostra 1</title></circle>
<circle cx="692.0" cy="629.4" r="5" fill="#368B88" stroke="#fcfcfb" stroke-width="2"><title>β 1,25 · janela · take 1k 20%: completa 6 · amostra 4</title></circle>
<circle cx="757.0" cy="572.4" r="5" fill="#2C8180" stroke="#fcfcfb" stroke-width="2"><title>β 1,0 · janela · take 1k 20%: completa 72 · amostra 38</title></circle>
<circle cx="825.0" cy="487.7" r="5" fill="#237777" stroke="#fcfcfb" stroke-width="2"><title>β 0,75 · janela · take 1k 20%: completa 848 · amostra 827</title></circle>
<circle cx="855.0" cy="454.4" r="5" fill="#1A6D6E" stroke="#fcfcfb" stroke-width="2"><title>β 0,5 · janela · take 1k 20%: completa 2.501k · amostra 2.755k</title></circle>
<circle cx="867.5" cy="446.4" r="5" fill="#116365" stroke="#fcfcfb" stroke-width="2"><title>β 0,25 · janela · take 1k 20%: completa 3.937k · amostra 3.672k</title></circle>
<circle cx="874.0" cy="443.5" r="5" fill="#08595C" stroke="#fcfcfb" stroke-width="2"><title>β 0,0 · janela · take 1k 20%: completa 4.97k · amostra 4.081k</title></circle>
<text x="204.0" y="716" font-size="12.5" font-weight="600" text-anchor="middle" fill="#0b0b0b">janela · take 10k 1%</text>
<line x1="86" y1="962.0" x2="322" y2="962.0" stroke="#e7e6e2"/>
<line x1="86.0" y1="726" x2="86.0" y2="962" stroke="#e7e6e2"/>
<text x="80" y="965.5" font-size="10" text-anchor="end" fill="#7a7974">0</text>
<text x="86.0" y="977" font-size="10" text-anchor="middle" fill="#7a7974">0</text>
<line x1="86" y1="942.8" x2="322" y2="942.8" stroke="#e7e6e2"/>
<line x1="105.2" y1="726" x2="105.2" y2="962" stroke="#e7e6e2"/>
<text x="80" y="946.3" font-size="10" text-anchor="end" fill="#7a7974">1</text>
<text x="105.2" y="977" font-size="10" text-anchor="middle" fill="#7a7974">1</text>
<line x1="86" y1="895.5" x2="322" y2="895.5" stroke="#e7e6e2"/>
<line x1="152.5" y1="726" x2="152.5" y2="962" stroke="#e7e6e2"/>
<text x="80" y="899.0" font-size="10" text-anchor="end" fill="#7a7974">10</text>
<text x="152.5" y="977" font-size="10" text-anchor="middle" fill="#7a7974">10</text>
<line x1="86" y1="834.0" x2="322" y2="834.0" stroke="#e7e6e2"/>
<line x1="214.0" y1="726" x2="214.0" y2="962" stroke="#e7e6e2"/>
<text x="80" y="837.5" font-size="10" text-anchor="end" fill="#7a7974">100</text>
<text x="214.0" y="977" font-size="10" text-anchor="middle" fill="#7a7974">100</text>
<line x1="86" y1="770.4" x2="322" y2="770.4" stroke="#e7e6e2"/>
<line x1="277.6" y1="726" x2="277.6" y2="962" stroke="#e7e6e2"/>
<text x="80" y="773.9" font-size="10" text-anchor="end" fill="#7a7974">1k</text>
<text x="277.6" y="977" font-size="10" text-anchor="middle" fill="#7a7974">1k</text>
<path d="M86.0,898.2 L157.1,827.0 L175.3,808.9 L186.1,798.0 L193.9,790.2 L200.0,784.2 L205.0,779.2 L209.2,775.0 L212.8,771.3 L216.1,768.1 L219.0,765.2 L221.6,762.6 L224.0,760.2 L226.2,758.0 L228.2,755.9 L230.1,754.0 L231.9,752.2 L233.6,750.6 L235.2,749.0 L236.7,747.5 L238.1,746.1 L239.4,744.7 L240.7,743.4 L241.9,742.2 L243.1,741.0 L244.2,739.9 L245.3,738.8 L246.4,737.8 L247.4,736.8 L248.3,735.8 L249.3,734.9 L250.2,734.0 L251.1,733.1 L251.9,732.2 L252.7,731.4 L253.5,730.6 L254.3,729.8 L255.1,729.1 L255.8,728.3 L256.5,727.6 L257.2,726.9 L257.9,726.2" fill="none" stroke="#9a9994" stroke-width="1" stroke-dasharray="2 3"/>
<text x="229.9" y="738.2" font-size="10.5" font-weight="600" text-anchor="middle" fill="#52514e" stroke="#fcfcfb" stroke-width="3.5" paint-order="stroke">×10</text>
<path d="M157.1,954.7 L175.3,936.6 L186.1,925.7 L193.9,917.9 L200.0,911.9 L205.0,906.9 L209.2,902.7 L212.8,899.0 L216.1,895.8 L219.0,892.9 L221.6,890.2 L224.0,887.9 L226.2,885.6 L228.2,883.6 L230.1,881.7 L231.9,879.9 L233.6,878.3 L235.2,876.7 L236.7,875.2 L238.1,873.8 L239.4,872.4 L240.7,871.1 L241.9,869.9 L243.1,868.7 L244.2,867.6 L245.3,866.5 L246.4,865.5 L247.4,864.5 L248.3,863.5 L249.3,862.6 L250.2,861.7 L251.1,860.8 L251.9,859.9 L252.7,859.1 L253.5,858.3 L254.3,857.5 L255.1,856.8 L255.8,856.0 L256.5,855.3 L257.2,854.6 L257.9,853.9 L258.6,853.3 L259.2,852.6 L259.9,852.0 L260.5,851.3 L261.1,850.7 L261.7,850.1 L262.3,849.6 L262.9,849.0 L263.4,848.4 L264.0,847.9 L264.5,847.3 L265.0,846.8 L265.5,846.3 L266.1,845.8 L266.6,845.3 L267.0,844.8 L267.5,844.3 L268.0,843.8 L268.5,843.4 L268.9,842.9 L269.4,842.5 L269.8,842.0 L270.3,841.6 L270.7,841.2 L271.1,840.7 L271.5,840.3 L271.9,839.9 L272.3,839.5 L272.7,839.1 L273.1,838.7 L273.5,838.3 L273.9,837.9 L274.3,837.6 L274.6,837.2 L275.0,836.8 L275.4,836.5 L275.7,836.1 L276.1,835.8 L276.4,835.4 L276.8,835.1 L277.1,834.7 L277.5,834.4 L277.8,834.1 L278.1,833.7 L278.4,833.4 L278.8,833.1 L279.1,832.8 L279.4,832.5 L279.7,832.2 L280.0,831.8 L280.3,831.5 L280.6,831.2 L280.9,830.9 L281.2,830.7 L281.5,830.4 L281.8,830.1 L282.1,829.8 L282.3,829.5 L282.6,829.2 L282.9,829.0 L283.2,828.7 L283.4,828.4 L283.7,828.1 L284.0,827.9 L284.2,827.6 L284.5,827.4 L284.7,827.1 L285.0,826.8 L285.3,826.6 L285.5,826.3 L285.8,826.1 L286.0,825.8 L286.2,825.6 L286.5,825.4 L286.7,825.1 L287.0,824.9 L287.2,824.6 L287.4,824.4 L287.7,824.2 L287.9,823.9 L288.1,823.7 L288.3,823.5 L288.6,823.3 L288.8,823.0 L289.0,822.8 L289.2,822.6 L289.5,822.4 L289.7,822.2 L289.9,822.0 L290.1,821.7 L290.3,821.5 L290.5,821.3 L290.7,821.1 L290.9,820.9 L291.1,820.7 L291.3,820.5 L291.5,820.3 L291.7,820.1 L291.9,819.9 L292.1,819.7 L292.3,819.5 L292.5,819.3 L292.7,819.1 L292.9,818.9 L293.1,818.7 L293.3,818.6 L293.5,818.4 L293.7,818.2 L293.8,818.0 L294.0,817.8 L294.2,817.6 L294.4,817.4 L294.6,817.3 L294.8,817.1 L294.9,816.9 L295.1,816.7 L295.3,816.6 L295.5,816.4 L295.6,816.2 L295.8,816.0 L296.0,815.9 L296.2,815.7 L296.3,815.5 L296.5,815.4 L296.7,815.2 L296.8,815.0 L297.0,814.9 L297.2,814.7 L297.3,814.5 L297.5,814.4 L297.6,814.2 L297.8,814.0 L298.0,813.9 L298.1,813.7 L298.3,813.6 L298.4,813.4 L298.6,813.3 L298.7,813.1 L298.9,812.9 L299.1,812.8 L299.2,812.6 L299.4,812.5 L299.5,812.3 L299.7,812.2 L299.8,812.0 L300.0,811.9 L300.1,811.7 L300.3,811.6 L300.4,811.4 L300.5,811.3 L300.7,811.2 L300.8,811.0 L301.0,810.9 L301.1,810.7 L301.3,810.6 L301.4,810.4 L301.5,810.3 L301.7,810.2 L301.8,810.0 L302.0,809.9 L302.1,809.7 L302.2,809.6 L302.4,809.5 L302.5,809.3 L302.6,809.2 L302.8,809.1 L302.9,808.9 L303.0,808.8 L303.2,808.7 L303.3,808.5 L303.4,808.4 L303.6,808.3 L303.7,808.1 L303.8,808.0 L304.0,807.9 L304.1,807.8 L304.2,807.6 L304.3,807.5 L304.5,807.4 L304.6,807.3 L304.7,807.1 L304.8,807.0 L305.0,806.9 L305.1,806.8 L305.2,806.6 L305.3,806.5 L305.5,806.4 L305.6,806.3 L305.7,806.1 L305.8,806.0 L305.9,805.9 L306.1,805.8 L306.2,805.7 L306.3,805.6 L306.4,805.4 L306.5,805.3 L306.6,805.2 L306.8,805.1 L306.9,805.0 L307.0,804.9 L307.1,804.7 L307.2,804.6 L307.3,804.5 L307.4,804.4 L307.6,804.3 L307.7,804.2 L307.8,804.1 L307.9,803.9 L308.0,803.8 L308.1,803.7 L308.2,803.6 L308.3,803.5 L308.4,803.4 L308.6,803.3 L308.7,803.2 L308.8,803.1 L308.9,803.0 L309.0,802.9 L309.1,802.8 L309.2,802.6 L309.3,802.5 L309.4,802.4 L309.5,802.3 L309.6,802.2 L309.7,802.1 L309.8,802.0 L309.9,801.9 L310.0,801.8 L310.1,801.7 L310.2,801.6 L310.3,801.5 L310.4,801.4 L310.5,801.3 L310.6,801.2 L310.7,801.1 L310.8,801.0 L310.9,800.9 L311.0,800.8 L311.1,800.7 L311.2,800.6 L311.3,800.5 L311.4,800.4 L311.5,800.3 L311.6,800.2 L311.7,800.1 L311.8,800.0 L311.9,799.9 L312.0,799.8 L312.1,799.7 L312.2,799.6 L312.3,799.5 L312.4,799.4 L312.5,799.3 L312.6,799.3 L312.7,799.2 L312.8,799.1 L312.9,799.0 L313.0,798.9 L313.1,798.8 L313.2,798.7 L313.2,798.6 L313.3,798.5 L313.4,798.4 L313.5,798.3 L313.6,798.2 L313.7,798.1 L313.8,798.1 L313.9,798.0 L314.0,797.9 L314.1,797.8 L314.1,797.7 L314.2,797.6 L314.3,797.5 L314.4,797.4 L314.5,797.3 L314.6,797.3 L314.7,797.2 L314.8,797.1 L314.8,797.0 L314.9,796.9 L315.0,796.8 L315.1,796.7 L315.2,796.7 L315.3,796.6 L315.4,796.5 L315.4,796.4 L315.5,796.3 L315.6,796.2 L315.7,796.1 L315.8,796.1 L315.9,796.0 L316.0,795.9 L316.0,795.8 L316.1,795.7 L316.2,795.6 L316.3,795.6 L316.4,795.5 L316.4,795.4 L316.5,795.3 L316.6,795.2 L316.7,795.2 L316.8,795.1 L316.9,795.0 L316.9,794.9 L317.0,794.8 L317.1,794.8 L317.2,794.7 L317.3,794.6 L317.3,794.5 L317.4,794.4 L317.5,794.4 L317.6,794.3 L317.6,794.2 L317.7,794.1 L317.8,794.0 L317.9,794.0 L318.0,793.9 L318.0,793.8 L318.1,793.7 L318.2,793.7 L318.3,793.6 L318.3,793.5 L318.4,793.4 L318.5,793.3 L318.6,793.3 L318.6,793.2 L318.7,793.1 L318.8,793.0 L318.9,793.0 L318.9,792.9 L319.0,792.8 L319.1,792.7 L319.2,792.7 L319.2,792.6 L319.3,792.5 L319.4,792.5 L319.5,792.4 L319.5,792.3 L319.6,792.2 L319.7,792.2 L319.8,792.1 L319.8,792.0 L319.9,791.9 L320.0,791.9 L320.0,791.8 L320.1,791.7 L320.2,791.7 L320.3,791.6 L320.3,791.5 L320.4,791.4 L320.5,791.4 L320.5,791.3 L320.6,791.2 L320.7,791.2 L320.8,791.1 L320.8,791.0 L320.9,790.9 L321.0,790.9 L321.0,790.8 L321.1,790.7 L321.2,790.7 L321.2,790.6 L321.3,790.5 L321.4,790.5 L321.4,790.4 L321.5,790.3 L321.6,790.3 L321.7,790.2 L321.7,790.1 L321.8,790.1 L321.9,790.0 L321.9,789.9 L322.0,789.9" fill="none" stroke="#9a9994" stroke-width="1" stroke-dasharray="2 3"/>
<text x="317.9" y="819.9" font-size="10.5" font-weight="600" text-anchor="middle" fill="#52514e" stroke="#fcfcfb" stroke-width="3.5" paint-order="stroke">÷10</text>
<line x1="86" y1="962" x2="322" y2="726" stroke="#9a9994" stroke-width="1.5" stroke-dasharray="4 3"/>
<text x="156.8" y="887.2" font-size="10.5" font-weight="600" text-anchor="middle" fill="#52514e" stroke="#fcfcfb" stroke-width="3.5" paint-order="stroke" transform="rotate(-45 156.8 887.2)">igual</text>
<rect x="86" y="726" width="236" height="236" fill="none" stroke="#c9c8c2"/>
<path d="M86.0,962.0 L86.0,962.0 L86.0,962.0 L86.0,962.0 L105.2,942.8 L140.0,917.4 L205.0,871.7 L273.0,813.6 L303.0,778.3 L315.5,760.2 L322.0,749.7" fill="none" stroke="#c9c8c2" stroke-width="1"/>
<circle cx="86.0" cy="962.0" r="5" fill="#63BDB5" stroke="#fcfcfb" stroke-width="2"><title>β 3,0 · janela · take 10k 1%: completa 0 · amostra 0</title></circle>
<circle cx="86.0" cy="962.0" r="5" fill="#5AB3AC" stroke="#fcfcfb" stroke-width="2"><title>β 2,5 · janela · take 10k 1%: completa 0 · amostra 0</title></circle>
<circle cx="86.0" cy="962.0" r="5" fill="#51A9A3" stroke="#fcfcfb" stroke-width="2"><title>β 2,0 · janela · take 10k 1%: completa 0 · amostra 0</title></circle>
<circle cx="86.0" cy="962.0" r="5" fill="#489F9A" stroke="#fcfcfb" stroke-width="2"><title>β 1,75 · janela · take 10k 1%: completa 0 · amostra 0</title></circle>
<circle cx="105.2" cy="942.8" r="5" fill="#3F9591" stroke="#fcfcfb" stroke-width="2"><title>β 1,5 · janela · take 10k 1%: completa 1 · amostra 1</title></circle>
<circle cx="140.0" cy="917.4" r="5" fill="#368B88" stroke="#fcfcfb" stroke-width="2"><title>β 1,25 · janela · take 10k 1%: completa 6 · amostra 4</title></circle>
<circle cx="205.0" cy="871.7" r="5" fill="#2C8180" stroke="#fcfcfb" stroke-width="2"><title>β 1,0 · janela · take 10k 1%: completa 72 · amostra 25</title></circle>
<circle cx="273.0" cy="813.6" r="5" fill="#237777" stroke="#fcfcfb" stroke-width="2"><title>β 0,75 · janela · take 10k 1%: completa 848 · amostra 210</title></circle>
<circle cx="303.0" cy="778.3" r="5" fill="#1A6D6E" stroke="#fcfcfb" stroke-width="2"><title>β 0,5 · janela · take 10k 1%: completa 2.501k · amostra 752</title></circle>
<circle cx="315.5" cy="760.2" r="5" fill="#116365" stroke="#fcfcfb" stroke-width="2"><title>β 0,25 · janela · take 10k 1%: completa 3.937k · amostra 1.445k</title></circle>
<circle cx="322.0" cy="749.7" r="5" fill="#08595C" stroke="#fcfcfb" stroke-width="2"><title>β 0,0 · janela · take 10k 1%: completa 4.97k · amostra 2.114k</title></circle>
<text x="480.0" y="716" font-size="12.5" font-weight="600" text-anchor="middle" fill="#0b0b0b">janela · take 10k 10%</text>
<line x1="362" y1="962.0" x2="598" y2="962.0" stroke="#e7e6e2"/>
<line x1="362.0" y1="726" x2="362.0" y2="962" stroke="#e7e6e2"/>
<text x="362.0" y="977" font-size="10" text-anchor="middle" fill="#7a7974">0</text>
<line x1="362" y1="942.8" x2="598" y2="942.8" stroke="#e7e6e2"/>
<line x1="381.2" y1="726" x2="381.2" y2="962" stroke="#e7e6e2"/>
<text x="381.2" y="977" font-size="10" text-anchor="middle" fill="#7a7974">1</text>
<line x1="362" y1="895.5" x2="598" y2="895.5" stroke="#e7e6e2"/>
<line x1="428.5" y1="726" x2="428.5" y2="962" stroke="#e7e6e2"/>
<text x="428.5" y="977" font-size="10" text-anchor="middle" fill="#7a7974">10</text>
<line x1="362" y1="834.0" x2="598" y2="834.0" stroke="#e7e6e2"/>
<line x1="490.0" y1="726" x2="490.0" y2="962" stroke="#e7e6e2"/>
<text x="490.0" y="977" font-size="10" text-anchor="middle" fill="#7a7974">100</text>
<line x1="362" y1="770.4" x2="598" y2="770.4" stroke="#e7e6e2"/>
<line x1="553.6" y1="726" x2="553.6" y2="962" stroke="#e7e6e2"/>
<text x="553.6" y="977" font-size="10" text-anchor="middle" fill="#7a7974">1k</text>
<path d="M362.0,898.2 L433.1,827.0 L451.3,808.9 L462.1,798.0 L469.9,790.2 L476.0,784.2 L481.0,779.2 L485.2,775.0 L488.8,771.3 L492.1,768.1 L495.0,765.2 L497.6,762.6 L500.0,760.2 L502.2,758.0 L504.2,755.9 L506.1,754.0 L507.9,752.2 L509.6,750.6 L511.2,749.0 L512.7,747.5 L514.1,746.1 L515.4,744.7 L516.7,743.4 L517.9,742.2 L519.1,741.0 L520.2,739.9 L521.3,738.8 L522.4,737.8 L523.4,736.8 L524.3,735.8 L525.3,734.9 L526.2,734.0 L527.1,733.1 L527.9,732.2 L528.7,731.4 L529.5,730.6 L530.3,729.8 L531.1,729.1 L531.8,728.3 L532.5,727.6 L533.2,726.9 L533.9,726.2" fill="none" stroke="#9a9994" stroke-width="1" stroke-dasharray="2 3"/>
<text x="505.9" y="738.2" font-size="10.5" font-weight="600" text-anchor="middle" fill="#52514e" stroke="#fcfcfb" stroke-width="3.5" paint-order="stroke">×10</text>
<path d="M433.1,954.7 L451.3,936.6 L462.1,925.7 L469.9,917.9 L476.0,911.9 L481.0,906.9 L485.2,902.7 L488.8,899.0 L492.1,895.8 L495.0,892.9 L497.6,890.2 L500.0,887.9 L502.2,885.6 L504.2,883.6 L506.1,881.7 L507.9,879.9 L509.6,878.3 L511.2,876.7 L512.7,875.2 L514.1,873.8 L515.4,872.4 L516.7,871.1 L517.9,869.9 L519.1,868.7 L520.2,867.6 L521.3,866.5 L522.4,865.5 L523.4,864.5 L524.3,863.5 L525.3,862.6 L526.2,861.7 L527.1,860.8 L527.9,859.9 L528.7,859.1 L529.5,858.3 L530.3,857.5 L531.1,856.8 L531.8,856.0 L532.5,855.3 L533.2,854.6 L533.9,853.9 L534.6,853.3 L535.2,852.6 L535.9,852.0 L536.5,851.3 L537.1,850.7 L537.7,850.1 L538.3,849.6 L538.9,849.0 L539.4,848.4 L540.0,847.9 L540.5,847.3 L541.0,846.8 L541.5,846.3 L542.1,845.8 L542.6,845.3 L543.0,844.8 L543.5,844.3 L544.0,843.8 L544.5,843.4 L544.9,842.9 L545.4,842.5 L545.8,842.0 L546.3,841.6 L546.7,841.2 L547.1,840.7 L547.5,840.3 L547.9,839.9 L548.3,839.5 L548.7,839.1 L549.1,838.7 L549.5,838.3 L549.9,837.9 L550.3,837.6 L550.6,837.2 L551.0,836.8 L551.4,836.5 L551.7,836.1 L552.1,835.8 L552.4,835.4 L552.8,835.1 L553.1,834.7 L553.5,834.4 L553.8,834.1 L554.1,833.7 L554.4,833.4 L554.8,833.1 L555.1,832.8 L555.4,832.5 L555.7,832.2 L556.0,831.8 L556.3,831.5 L556.6,831.2 L556.9,830.9 L557.2,830.7 L557.5,830.4 L557.8,830.1 L558.1,829.8 L558.3,829.5 L558.6,829.2 L558.9,829.0 L559.2,828.7 L559.4,828.4 L559.7,828.1 L560.0,827.9 L560.2,827.6 L560.5,827.4 L560.7,827.1 L561.0,826.8 L561.3,826.6 L561.5,826.3 L561.8,826.1 L562.0,825.8 L562.2,825.6 L562.5,825.4 L562.7,825.1 L563.0,824.9 L563.2,824.6 L563.4,824.4 L563.7,824.2 L563.9,823.9 L564.1,823.7 L564.3,823.5 L564.6,823.3 L564.8,823.0 L565.0,822.8 L565.2,822.6 L565.5,822.4 L565.7,822.2 L565.9,822.0 L566.1,821.7 L566.3,821.5 L566.5,821.3 L566.7,821.1 L566.9,820.9 L567.1,820.7 L567.3,820.5 L567.5,820.3 L567.7,820.1 L567.9,819.9 L568.1,819.7 L568.3,819.5 L568.5,819.3 L568.7,819.1 L568.9,818.9 L569.1,818.7 L569.3,818.6 L569.5,818.4 L569.7,818.2 L569.8,818.0 L570.0,817.8 L570.2,817.6 L570.4,817.4 L570.6,817.3 L570.8,817.1 L570.9,816.9 L571.1,816.7 L571.3,816.6 L571.5,816.4 L571.6,816.2 L571.8,816.0 L572.0,815.9 L572.2,815.7 L572.3,815.5 L572.5,815.4 L572.7,815.2 L572.8,815.0 L573.0,814.9 L573.2,814.7 L573.3,814.5 L573.5,814.4 L573.6,814.2 L573.8,814.0 L574.0,813.9 L574.1,813.7 L574.3,813.6 L574.4,813.4 L574.6,813.3 L574.7,813.1 L574.9,812.9 L575.1,812.8 L575.2,812.6 L575.4,812.5 L575.5,812.3 L575.7,812.2 L575.8,812.0 L576.0,811.9 L576.1,811.7 L576.3,811.6 L576.4,811.4 L576.5,811.3 L576.7,811.2 L576.8,811.0 L577.0,810.9 L577.1,810.7 L577.3,810.6 L577.4,810.4 L577.5,810.3 L577.7,810.2 L577.8,810.0 L578.0,809.9 L578.1,809.7 L578.2,809.6 L578.4,809.5 L578.5,809.3 L578.6,809.2 L578.8,809.1 L578.9,808.9 L579.0,808.8 L579.2,808.7 L579.3,808.5 L579.4,808.4 L579.6,808.3 L579.7,808.1 L579.8,808.0 L580.0,807.9 L580.1,807.8 L580.2,807.6 L580.3,807.5 L580.5,807.4 L580.6,807.3 L580.7,807.1 L580.8,807.0 L581.0,806.9 L581.1,806.8 L581.2,806.6 L581.3,806.5 L581.5,806.4 L581.6,806.3 L581.7,806.1 L581.8,806.0 L581.9,805.9 L582.1,805.8 L582.2,805.7 L582.3,805.6 L582.4,805.4 L582.5,805.3 L582.6,805.2 L582.8,805.1 L582.9,805.0 L583.0,804.9 L583.1,804.7 L583.2,804.6 L583.3,804.5 L583.4,804.4 L583.6,804.3 L583.7,804.2 L583.8,804.1 L583.9,803.9 L584.0,803.8 L584.1,803.7 L584.2,803.6 L584.3,803.5 L584.4,803.4 L584.6,803.3 L584.7,803.2 L584.8,803.1 L584.9,803.0 L585.0,802.9 L585.1,802.8 L585.2,802.6 L585.3,802.5 L585.4,802.4 L585.5,802.3 L585.6,802.2 L585.7,802.1 L585.8,802.0 L585.9,801.9 L586.0,801.8 L586.1,801.7 L586.2,801.6 L586.3,801.5 L586.4,801.4 L586.5,801.3 L586.6,801.2 L586.7,801.1 L586.8,801.0 L586.9,800.9 L587.0,800.8 L587.1,800.7 L587.2,800.6 L587.3,800.5 L587.4,800.4 L587.5,800.3 L587.6,800.2 L587.7,800.1 L587.8,800.0 L587.9,799.9 L588.0,799.8 L588.1,799.7 L588.2,799.6 L588.3,799.5 L588.4,799.4 L588.5,799.3 L588.6,799.3 L588.7,799.2 L588.8,799.1 L588.9,799.0 L589.0,798.9 L589.1,798.8 L589.2,798.7 L589.2,798.6 L589.3,798.5 L589.4,798.4 L589.5,798.3 L589.6,798.2 L589.7,798.1 L589.8,798.1 L589.9,798.0 L590.0,797.9 L590.1,797.8 L590.1,797.7 L590.2,797.6 L590.3,797.5 L590.4,797.4 L590.5,797.3 L590.6,797.3 L590.7,797.2 L590.8,797.1 L590.8,797.0 L590.9,796.9 L591.0,796.8 L591.1,796.7 L591.2,796.7 L591.3,796.6 L591.4,796.5 L591.4,796.4 L591.5,796.3 L591.6,796.2 L591.7,796.1 L591.8,796.1 L591.9,796.0 L592.0,795.9 L592.0,795.8 L592.1,795.7 L592.2,795.6 L592.3,795.6 L592.4,795.5 L592.4,795.4 L592.5,795.3 L592.6,795.2 L592.7,795.2 L592.8,795.1 L592.9,795.0 L592.9,794.9 L593.0,794.8 L593.1,794.8 L593.2,794.7 L593.3,794.6 L593.3,794.5 L593.4,794.4 L593.5,794.4 L593.6,794.3 L593.6,794.2 L593.7,794.1 L593.8,794.0 L593.9,794.0 L594.0,793.9 L594.0,793.8 L594.1,793.7 L594.2,793.7 L594.3,793.6 L594.3,793.5 L594.4,793.4 L594.5,793.3 L594.6,793.3 L594.6,793.2 L594.7,793.1 L594.8,793.0 L594.9,793.0 L594.9,792.9 L595.0,792.8 L595.1,792.7 L595.2,792.7 L595.2,792.6 L595.3,792.5 L595.4,792.5 L595.5,792.4 L595.5,792.3 L595.6,792.2 L595.7,792.2 L595.8,792.1 L595.8,792.0 L595.9,791.9 L596.0,791.9 L596.0,791.8 L596.1,791.7 L596.2,791.7 L596.3,791.6 L596.3,791.5 L596.4,791.4 L596.5,791.4 L596.5,791.3 L596.6,791.2 L596.7,791.2 L596.8,791.1 L596.8,791.0 L596.9,790.9 L597.0,790.9 L597.0,790.8 L597.1,790.7 L597.2,790.7 L597.2,790.6 L597.3,790.5 L597.4,790.5 L597.4,790.4 L597.5,790.3 L597.6,790.3 L597.7,790.2 L597.7,790.1 L597.8,790.1 L597.9,790.0 L597.9,789.9 L598.0,789.9" fill="none" stroke="#9a9994" stroke-width="1" stroke-dasharray="2 3"/>
<text x="593.9" y="819.9" font-size="10.5" font-weight="600" text-anchor="middle" fill="#52514e" stroke="#fcfcfb" stroke-width="3.5" paint-order="stroke">÷10</text>
<line x1="362" y1="962" x2="598" y2="726" stroke="#9a9994" stroke-width="1.5" stroke-dasharray="4 3"/>
<text x="432.8" y="887.2" font-size="10.5" font-weight="600" text-anchor="middle" fill="#52514e" stroke="#fcfcfb" stroke-width="3.5" paint-order="stroke" transform="rotate(-45 432.8 887.2)">igual</text>
<rect x="362" y="726" width="236" height="236" fill="none" stroke="#c9c8c2"/>
<path d="M362.0,962.0 L362.0,962.0 L362.0,962.0 L362.0,962.0 L381.2,942.8 L416.0,917.4 L481.0,865.1 L549.0,798.9 L579.0,761.2 L591.5,743.9 L598.0,734.8" fill="none" stroke="#c9c8c2" stroke-width="1"/>
<circle cx="362.0" cy="962.0" r="5" fill="#63BDB5" stroke="#fcfcfb" stroke-width="2"><title>β 3,0 · janela · take 10k 10%: completa 0 · amostra 0</title></circle>
<circle cx="362.0" cy="962.0" r="5" fill="#5AB3AC" stroke="#fcfcfb" stroke-width="2"><title>β 2,5 · janela · take 10k 10%: completa 0 · amostra 0</title></circle>
<circle cx="362.0" cy="962.0" r="5" fill="#51A9A3" stroke="#fcfcfb" stroke-width="2"><title>β 2,0 · janela · take 10k 10%: completa 0 · amostra 0</title></circle>
<circle cx="362.0" cy="962.0" r="5" fill="#489F9A" stroke="#fcfcfb" stroke-width="2"><title>β 1,75 · janela · take 10k 10%: completa 0 · amostra 0</title></circle>
<circle cx="381.2" cy="942.8" r="5" fill="#3F9591" stroke="#fcfcfb" stroke-width="2"><title>β 1,5 · janela · take 10k 10%: completa 1 · amostra 1</title></circle>
<circle cx="416.0" cy="917.4" r="5" fill="#368B88" stroke="#fcfcfb" stroke-width="2"><title>β 1,25 · janela · take 10k 10%: completa 6 · amostra 4</title></circle>
<circle cx="481.0" cy="865.1" r="5" fill="#2C8180" stroke="#fcfcfb" stroke-width="2"><title>β 1,0 · janela · take 10k 10%: completa 72 · amostra 32</title></circle>
<circle cx="549.0" cy="798.9" r="5" fill="#237777" stroke="#fcfcfb" stroke-width="2"><title>β 0,75 · janela · take 10k 10%: completa 848 · amostra 358</title></circle>
<circle cx="579.0" cy="761.2" r="5" fill="#1A6D6E" stroke="#fcfcfb" stroke-width="2"><title>β 0,5 · janela · take 10k 10%: completa 2.501k · amostra 1.396k</title></circle>
<circle cx="591.5" cy="743.9" r="5" fill="#116365" stroke="#fcfcfb" stroke-width="2"><title>β 0,25 · janela · take 10k 10%: completa 3.937k · amostra 2.609k</title></circle>
<circle cx="598.0" cy="734.8" r="5" fill="#08595C" stroke="#fcfcfb" stroke-width="2"><title>β 0,0 · janela · take 10k 10%: completa 4.97k · amostra 3.612k</title></circle>
<text x="756.0" y="716" font-size="12.5" font-weight="600" text-anchor="middle" fill="#0b0b0b">janela · take 10k 20%</text>
<line x1="638" y1="962.0" x2="874" y2="962.0" stroke="#e7e6e2"/>
<line x1="638.0" y1="726" x2="638.0" y2="962" stroke="#e7e6e2"/>
<text x="638.0" y="977" font-size="10" text-anchor="middle" fill="#7a7974">0</text>
<line x1="638" y1="942.8" x2="874" y2="942.8" stroke="#e7e6e2"/>
<line x1="657.2" y1="726" x2="657.2" y2="962" stroke="#e7e6e2"/>
<text x="657.2" y="977" font-size="10" text-anchor="middle" fill="#7a7974">1</text>
<line x1="638" y1="895.5" x2="874" y2="895.5" stroke="#e7e6e2"/>
<line x1="704.5" y1="726" x2="704.5" y2="962" stroke="#e7e6e2"/>
<text x="704.5" y="977" font-size="10" text-anchor="middle" fill="#7a7974">10</text>
<line x1="638" y1="834.0" x2="874" y2="834.0" stroke="#e7e6e2"/>
<line x1="766.0" y1="726" x2="766.0" y2="962" stroke="#e7e6e2"/>
<text x="766.0" y="977" font-size="10" text-anchor="middle" fill="#7a7974">100</text>
<line x1="638" y1="770.4" x2="874" y2="770.4" stroke="#e7e6e2"/>
<line x1="829.6" y1="726" x2="829.6" y2="962" stroke="#e7e6e2"/>
<text x="829.6" y="977" font-size="10" text-anchor="middle" fill="#7a7974">1k</text>
<path d="M638.0,898.2 L709.1,827.0 L727.3,808.9 L738.1,798.0 L745.9,790.2 L752.0,784.2 L757.0,779.2 L761.2,775.0 L764.8,771.3 L768.1,768.1 L771.0,765.2 L773.6,762.6 L776.0,760.2 L778.2,758.0 L780.2,755.9 L782.1,754.0 L783.9,752.2 L785.6,750.6 L787.2,749.0 L788.7,747.5 L790.1,746.1 L791.4,744.7 L792.7,743.4 L793.9,742.2 L795.1,741.0 L796.2,739.9 L797.3,738.8 L798.4,737.8 L799.4,736.8 L800.3,735.8 L801.3,734.9 L802.2,734.0 L803.1,733.1 L803.9,732.2 L804.7,731.4 L805.5,730.6 L806.3,729.8 L807.1,729.1 L807.8,728.3 L808.5,727.6 L809.2,726.9 L809.9,726.2" fill="none" stroke="#9a9994" stroke-width="1" stroke-dasharray="2 3"/>
<text x="781.9" y="738.2" font-size="10.5" font-weight="600" text-anchor="middle" fill="#52514e" stroke="#fcfcfb" stroke-width="3.5" paint-order="stroke">×10</text>
<path d="M709.1,954.7 L727.3,936.6 L738.1,925.7 L745.9,917.9 L752.0,911.9 L757.0,906.9 L761.2,902.7 L764.8,899.0 L768.1,895.8 L771.0,892.9 L773.6,890.2 L776.0,887.9 L778.2,885.6 L780.2,883.6 L782.1,881.7 L783.9,879.9 L785.6,878.3 L787.2,876.7 L788.7,875.2 L790.1,873.8 L791.4,872.4 L792.7,871.1 L793.9,869.9 L795.1,868.7 L796.2,867.6 L797.3,866.5 L798.4,865.5 L799.4,864.5 L800.3,863.5 L801.3,862.6 L802.2,861.7 L803.1,860.8 L803.9,859.9 L804.7,859.1 L805.5,858.3 L806.3,857.5 L807.1,856.8 L807.8,856.0 L808.5,855.3 L809.2,854.6 L809.9,853.9 L810.6,853.3 L811.2,852.6 L811.9,852.0 L812.5,851.3 L813.1,850.7 L813.7,850.1 L814.3,849.6 L814.9,849.0 L815.4,848.4 L816.0,847.9 L816.5,847.3 L817.0,846.8 L817.5,846.3 L818.1,845.8 L818.6,845.3 L819.0,844.8 L819.5,844.3 L820.0,843.8 L820.5,843.4 L820.9,842.9 L821.4,842.5 L821.8,842.0 L822.3,841.6 L822.7,841.2 L823.1,840.7 L823.5,840.3 L823.9,839.9 L824.3,839.5 L824.7,839.1 L825.1,838.7 L825.5,838.3 L825.9,837.9 L826.3,837.6 L826.6,837.2 L827.0,836.8 L827.4,836.5 L827.7,836.1 L828.1,835.8 L828.4,835.4 L828.8,835.1 L829.1,834.7 L829.5,834.4 L829.8,834.1 L830.1,833.7 L830.4,833.4 L830.8,833.1 L831.1,832.8 L831.4,832.5 L831.7,832.2 L832.0,831.8 L832.3,831.5 L832.6,831.2 L832.9,830.9 L833.2,830.7 L833.5,830.4 L833.8,830.1 L834.1,829.8 L834.3,829.5 L834.6,829.2 L834.9,829.0 L835.2,828.7 L835.4,828.4 L835.7,828.1 L836.0,827.9 L836.2,827.6 L836.5,827.4 L836.7,827.1 L837.0,826.8 L837.3,826.6 L837.5,826.3 L837.8,826.1 L838.0,825.8 L838.2,825.6 L838.5,825.4 L838.7,825.1 L839.0,824.9 L839.2,824.6 L839.4,824.4 L839.7,824.2 L839.9,823.9 L840.1,823.7 L840.3,823.5 L840.6,823.3 L840.8,823.0 L841.0,822.8 L841.2,822.6 L841.5,822.4 L841.7,822.2 L841.9,822.0 L842.1,821.7 L842.3,821.5 L842.5,821.3 L842.7,821.1 L842.9,820.9 L843.1,820.7 L843.3,820.5 L843.5,820.3 L843.7,820.1 L843.9,819.9 L844.1,819.7 L844.3,819.5 L844.5,819.3 L844.7,819.1 L844.9,818.9 L845.1,818.7 L845.3,818.6 L845.5,818.4 L845.7,818.2 L845.8,818.0 L846.0,817.8 L846.2,817.6 L846.4,817.4 L846.6,817.3 L846.8,817.1 L846.9,816.9 L847.1,816.7 L847.3,816.6 L847.5,816.4 L847.6,816.2 L847.8,816.0 L848.0,815.9 L848.2,815.7 L848.3,815.5 L848.5,815.4 L848.7,815.2 L848.8,815.0 L849.0,814.9 L849.2,814.7 L849.3,814.5 L849.5,814.4 L849.6,814.2 L849.8,814.0 L850.0,813.9 L850.1,813.7 L850.3,813.6 L850.4,813.4 L850.6,813.3 L850.7,813.1 L850.9,812.9 L851.1,812.8 L851.2,812.6 L851.4,812.5 L851.5,812.3 L851.7,812.2 L851.8,812.0 L852.0,811.9 L852.1,811.7 L852.3,811.6 L852.4,811.4 L852.5,811.3 L852.7,811.2 L852.8,811.0 L853.0,810.9 L853.1,810.7 L853.3,810.6 L853.4,810.4 L853.5,810.3 L853.7,810.2 L853.8,810.0 L854.0,809.9 L854.1,809.7 L854.2,809.6 L854.4,809.5 L854.5,809.3 L854.6,809.2 L854.8,809.1 L854.9,808.9 L855.0,808.8 L855.2,808.7 L855.3,808.5 L855.4,808.4 L855.6,808.3 L855.7,808.1 L855.8,808.0 L856.0,807.9 L856.1,807.8 L856.2,807.6 L856.3,807.5 L856.5,807.4 L856.6,807.3 L856.7,807.1 L856.8,807.0 L857.0,806.9 L857.1,806.8 L857.2,806.6 L857.3,806.5 L857.5,806.4 L857.6,806.3 L857.7,806.1 L857.8,806.0 L857.9,805.9 L858.1,805.8 L858.2,805.7 L858.3,805.6 L858.4,805.4 L858.5,805.3 L858.6,805.2 L858.8,805.1 L858.9,805.0 L859.0,804.9 L859.1,804.7 L859.2,804.6 L859.3,804.5 L859.4,804.4 L859.6,804.3 L859.7,804.2 L859.8,804.1 L859.9,803.9 L860.0,803.8 L860.1,803.7 L860.2,803.6 L860.3,803.5 L860.4,803.4 L860.6,803.3 L860.7,803.2 L860.8,803.1 L860.9,803.0 L861.0,802.9 L861.1,802.8 L861.2,802.6 L861.3,802.5 L861.4,802.4 L861.5,802.3 L861.6,802.2 L861.7,802.1 L861.8,802.0 L861.9,801.9 L862.0,801.8 L862.1,801.7 L862.2,801.6 L862.3,801.5 L862.4,801.4 L862.5,801.3 L862.6,801.2 L862.7,801.1 L862.8,801.0 L862.9,800.9 L863.0,800.8 L863.1,800.7 L863.2,800.6 L863.3,800.5 L863.4,800.4 L863.5,800.3 L863.6,800.2 L863.7,800.1 L863.8,800.0 L863.9,799.9 L864.0,799.8 L864.1,799.7 L864.2,799.6 L864.3,799.5 L864.4,799.4 L864.5,799.3 L864.6,799.3 L864.7,799.2 L864.8,799.1 L864.9,799.0 L865.0,798.9 L865.1,798.8 L865.2,798.7 L865.2,798.6 L865.3,798.5 L865.4,798.4 L865.5,798.3 L865.6,798.2 L865.7,798.1 L865.8,798.1 L865.9,798.0 L866.0,797.9 L866.1,797.8 L866.1,797.7 L866.2,797.6 L866.3,797.5 L866.4,797.4 L866.5,797.3 L866.6,797.3 L866.7,797.2 L866.8,797.1 L866.8,797.0 L866.9,796.9 L867.0,796.8 L867.1,796.7 L867.2,796.7 L867.3,796.6 L867.4,796.5 L867.4,796.4 L867.5,796.3 L867.6,796.2 L867.7,796.1 L867.8,796.1 L867.9,796.0 L868.0,795.9 L868.0,795.8 L868.1,795.7 L868.2,795.6 L868.3,795.6 L868.4,795.5 L868.4,795.4 L868.5,795.3 L868.6,795.2 L868.7,795.2 L868.8,795.1 L868.9,795.0 L868.9,794.9 L869.0,794.8 L869.1,794.8 L869.2,794.7 L869.3,794.6 L869.3,794.5 L869.4,794.4 L869.5,794.4 L869.6,794.3 L869.6,794.2 L869.7,794.1 L869.8,794.0 L869.9,794.0 L870.0,793.9 L870.0,793.8 L870.1,793.7 L870.2,793.7 L870.3,793.6 L870.3,793.5 L870.4,793.4 L870.5,793.3 L870.6,793.3 L870.6,793.2 L870.7,793.1 L870.8,793.0 L870.9,793.0 L870.9,792.9 L871.0,792.8 L871.1,792.7 L871.2,792.7 L871.2,792.6 L871.3,792.5 L871.4,792.5 L871.5,792.4 L871.5,792.3 L871.6,792.2 L871.7,792.2 L871.8,792.1 L871.8,792.0 L871.9,791.9 L872.0,791.9 L872.0,791.8 L872.1,791.7 L872.2,791.7 L872.3,791.6 L872.3,791.5 L872.4,791.4 L872.5,791.4 L872.5,791.3 L872.6,791.2 L872.7,791.2 L872.8,791.1 L872.8,791.0 L872.9,790.9 L873.0,790.9 L873.0,790.8 L873.1,790.7 L873.2,790.7 L873.2,790.6 L873.3,790.5 L873.4,790.5 L873.4,790.4 L873.5,790.3 L873.6,790.3 L873.7,790.2 L873.7,790.1 L873.8,790.1 L873.9,790.0 L873.9,789.9 L874.0,789.9" fill="none" stroke="#9a9994" stroke-width="1" stroke-dasharray="2 3"/>
<text x="869.9" y="819.9" font-size="10.5" font-weight="600" text-anchor="middle" fill="#52514e" stroke="#fcfcfb" stroke-width="3.5" paint-order="stroke">÷10</text>
<line x1="638" y1="962" x2="874" y2="726" stroke="#9a9994" stroke-width="1.5" stroke-dasharray="4 3"/>
<text x="708.8" y="887.2" font-size="10.5" font-weight="600" text-anchor="middle" fill="#52514e" stroke="#fcfcfb" stroke-width="3.5" paint-order="stroke" transform="rotate(-45 708.8 887.2)">igual</text>
<rect x="638" y="726" width="236" height="236" fill="none" stroke="#c9c8c2"/>
<path d="M638.0,962.0 L638.0,962.0 L638.0,962.0 L638.0,962.0 L657.2,942.8 L692.0,917.4 L757.0,858.4 L825.0,788.5 L855.0,753.0 L867.5,737.9 L874.0,730.6" fill="none" stroke="#c9c8c2" stroke-width="1"/>
<circle cx="638.0" cy="962.0" r="5" fill="#63BDB5" stroke="#fcfcfb" stroke-width="2"><title>β 3,0 · janela · take 10k 20%: completa 0 · amostra 0</title></circle>
<circle cx="638.0" cy="962.0" r="5" fill="#5AB3AC" stroke="#fcfcfb" stroke-width="2"><title>β 2,5 · janela · take 10k 20%: completa 0 · amostra 0</title></circle>
<circle cx="638.0" cy="962.0" r="5" fill="#51A9A3" stroke="#fcfcfb" stroke-width="2"><title>β 2,0 · janela · take 10k 20%: completa 0 · amostra 0</title></circle>
<circle cx="638.0" cy="962.0" r="5" fill="#489F9A" stroke="#fcfcfb" stroke-width="2"><title>β 1,75 · janela · take 10k 20%: completa 0 · amostra 0</title></circle>
<circle cx="657.2" cy="942.8" r="5" fill="#3F9591" stroke="#fcfcfb" stroke-width="2"><title>β 1,5 · janela · take 10k 20%: completa 1 · amostra 1</title></circle>
<circle cx="692.0" cy="917.4" r="5" fill="#368B88" stroke="#fcfcfb" stroke-width="2"><title>β 1,25 · janela · take 10k 20%: completa 6 · amostra 4</title></circle>
<circle cx="757.0" cy="858.4" r="5" fill="#2C8180" stroke="#fcfcfb" stroke-width="2"><title>β 1,0 · janela · take 10k 20%: completa 72 · amostra 41</title></circle>
<circle cx="825.0" cy="788.5" r="5" fill="#237777" stroke="#fcfcfb" stroke-width="2"><title>β 0,75 · janela · take 10k 20%: completa 848 · amostra 520</title></circle>
<circle cx="855.0" cy="753.0" r="5" fill="#1A6D6E" stroke="#fcfcfb" stroke-width="2"><title>β 0,5 · janela · take 10k 20%: completa 2.501k · amostra 1.879k</title></circle>
<circle cx="867.5" cy="737.9" r="5" fill="#116365" stroke="#fcfcfb" stroke-width="2"><title>β 0,25 · janela · take 10k 20%: completa 3.937k · amostra 3.238k</title></circle>
<circle cx="874.0" cy="730.6" r="5" fill="#08595C" stroke="#fcfcfb" stroke-width="2"><title>β 0,0 · janela · take 10k 20%: completa 4.97k · amostra 4.203k</title></circle>
<text x="480.0" y="1004" font-size="11" text-anchor="middle" fill="#52514e">mediana da carga completa</text>
<text x="18" y="556.0" font-size="11" fill="#52514e" transform="rotate(-90 18 556.0)" text-anchor="middle">mediana da amostra</text>
</svg>